<svg width="77" height="77" viewBox="0 0 77 77" fill="none" xmlns="http://www.w3.org/2000/svg">
<path d="M0 36.7072C0 19.4029 -5.08819e-06 10.7525 5.37447 5.37448C10.7489 0 19.4029 0 36.7072 0H39.7661C57.0705 0 65.7209 0 71.0989 5.37448C76.4734 10.749 76.4734 19.4029 76.4734 36.7072V39.7661C76.4734 57.0705 76.4734 65.7208 71.0989 71.0989C65.7244 76.4734 57.0705 76.4734 39.7661 76.4734H36.7072C19.4029 76.4734 10.7525 76.4734 5.37447 71.0989C-5.08819e-06 65.7244 0 57.0705 0 39.7661V36.7072Z" fill="white"/>
<path fill-rule="evenodd" clip-rule="evenodd" d="M15.7596 37.3404C27.9883 32.0122 36.1442 28.4979 40.224 26.8013C51.8728 21.9568 54.2951 21.1138 55.8744 21.0854C56.2229 21.0782 56.9983 21.1636 57.4999 21.5727C57.9231 21.9177 58.0405 22.3836 58.0974 22.7073C58.1543 23.031 58.2219 23.7779 58.1686 24.3577C57.539 30.9913 54.8037 47.0899 53.4165 54.5202C52.8296 57.6645 51.6701 58.7174 50.5497 58.8205C48.1132 59.0446 46.2636 57.2092 43.9054 55.662C40.2133 53.2433 38.1254 51.7352 34.5436 49.3734C30.4034 46.6452 33.0853 45.1442 35.4471 42.6935C36.066 42.0533 46.7972 32.2896 47.007 31.4039C47.0319 31.2937 47.0568 30.8811 46.8114 30.6605C46.566 30.44 46.2032 30.5183 45.9435 30.5752C45.5736 30.6605 39.6762 34.5589 28.2479 42.2703C26.5726 43.4191 25.0574 43.9811 23.6986 43.9491C22.2012 43.9171 19.3201 43.1026 17.1788 42.4054C14.5503 41.5518 12.4624 41.1 12.6438 39.6488C12.7398 38.8948 13.7784 38.1194 15.7632 37.3297L15.7596 37.3404Z" fill="#024492"/>
</svg>
