<svg width="795" height="94" viewBox="0 0 795 94" fill="none" xmlns="http://www.w3.org/2000/svg">
<path d="M494.957 32.2399H492.167V20.7618L483.547 32.2399H481.12V16.3611H483.91V27.5443L492.28 16.3611H494.957V32.2399ZM498.587 32.2399V16.3611H501.377V22.9622H508.954V16.3611H511.744V32.2399H508.954V25.5481H501.377V32.2399H498.587ZM522.74 32.5121C518.113 32.5121 514.665 28.9053 514.665 24.3459V24.3005C514.665 19.7864 518.045 16.0889 522.831 16.0889C525.78 16.0889 527.549 17.1097 529.069 18.5615L527.277 20.6257C525.984 19.4461 524.646 18.6749 522.808 18.6749C519.814 18.6749 517.591 21.1474 517.591 24.2551V24.3005C517.591 27.4082 519.791 29.9261 522.831 29.9261C524.759 29.9261 526.029 29.1549 527.39 27.8846L529.182 29.6993C527.572 31.4459 525.689 32.5121 522.74 32.5121ZM535.562 32.2399V18.9471H530.504V16.3611H543.411V18.9471H538.353V32.2399H535.562ZM559.688 32.2399H556.897V20.7618L548.278 32.2399H545.85V16.3611H548.64V27.5443L557.011 16.3611H559.688V32.2399ZM567.197 32.2399V18.9471H562.138V16.3611H575.045V18.9471H569.987V32.2399H567.197ZM582.316 32.2399H579.209L582.384 26.773L576.033 16.3611H579.209L583.927 24.2778L588.237 16.3611H591.344L582.316 32.2399ZM597.17 32.2399V18.9471H592.111V16.3611H605.018V18.9471H599.96V32.2399H597.17ZM484.999 55.2399V41.9471H479.94V39.3611H492.847V41.9471H487.789V55.2399H484.999ZM495.286 55.2399V39.3611H501.547C505.267 39.3611 507.581 41.4707 507.581 44.6692V44.7145C507.581 48.2532 504.746 50.136 501.23 50.136H498.077V55.2399H495.286ZM498.077 47.6181H501.32C503.43 47.6181 504.746 46.4385 504.746 44.7826V44.7372C504.746 42.8545 503.407 41.9017 501.32 41.9017H498.077V47.6181ZM507.029 55.2399L514.016 39.2477H516.602L523.588 55.2399H520.639L519.029 51.4063H511.52L509.887 55.2399H507.029ZM512.541 48.9337H518.008L515.263 42.5822L512.541 48.9337ZM525.857 55.2399V39.3611H528.648V45.9622H536.224V39.3611H539.014V55.2399H536.224V48.5481H528.648V55.2399H525.857ZM550.011 55.5121C545.383 55.5121 541.935 51.9053 541.935 47.3459V47.3005C541.935 42.7864 545.315 39.0889 550.101 39.0889C553.05 39.0889 554.82 40.1097 556.339 41.5615L554.547 43.6257C553.254 42.4461 551.916 41.6749 550.079 41.6749C547.084 41.6749 544.861 44.1474 544.861 47.2551V47.3005C544.861 50.4082 547.062 52.9261 550.101 52.9261C552.029 52.9261 553.3 52.1549 554.661 50.8846L556.453 52.6993C554.842 54.4459 552.959 55.5121 550.011 55.5121ZM558.954 55.2399V39.3611H572.042V55.2399H569.23V41.9017H561.744V55.2399H558.954ZM583.222 55.5121C578.345 55.5121 574.943 51.8146 574.943 47.3459V47.3005C574.943 42.8545 578.391 39.0889 583.268 39.0889C588.145 39.0889 591.547 42.7864 591.547 47.2551V47.3005C591.547 51.7465 588.099 55.5121 583.222 55.5121ZM583.268 52.9261C586.421 52.9261 588.621 50.4309 588.621 47.3459V47.3005C588.621 44.2155 586.398 41.6749 583.222 41.6749C580.069 41.6749 577.869 44.1701 577.869 47.2551V47.3005C577.869 50.3855 580.092 52.9261 583.268 52.9261ZM594.465 55.2399V39.3611H600.726C604.446 39.3611 606.759 41.4707 606.759 44.6692V44.7145C606.759 48.2532 603.924 50.136 600.408 50.136H597.255V55.2399H594.465ZM597.255 47.6181H600.499C602.608 47.6181 603.924 46.4385 603.924 44.7826V44.7372C603.924 42.8545 602.586 41.9017 600.499 41.9017H597.255V47.6181ZM613.042 55.2399V41.9471H607.984V39.3611H620.891V41.9471H615.832V55.2399H613.042ZM623.33 55.2399V39.3611H626.12V45.9622H633.697V39.3611H636.487V55.2399H633.697V48.5481H626.12V55.2399H623.33ZM647.687 55.5121C642.81 55.5121 639.408 51.8146 639.408 47.3459V47.3005C639.408 42.8545 642.856 39.0889 647.733 39.0889C652.61 39.0889 656.012 42.7864 656.012 47.2551V47.3005C656.012 51.7465 652.564 55.5121 647.687 55.5121ZM647.733 52.9261C650.886 52.9261 653.086 50.4309 653.086 47.3459V47.3005C653.086 44.2155 650.863 41.6749 647.687 41.6749C644.534 41.6749 642.334 44.1701 642.334 47.2551V47.3005C642.334 50.3855 644.557 52.9261 647.733 52.9261ZM665.848 38.0908C663.671 38.0908 662.105 37.0247 661.924 35.0512H663.875C664.147 35.7544 664.691 36.1854 665.848 36.1854C667.005 36.1854 667.549 35.7544 667.822 35.0512H669.772C669.591 37.0247 668.026 38.0908 665.848 38.0908ZM672.767 55.2399H669.977V43.7618L661.357 55.2399H658.93V39.3611H661.72V50.5443L670.09 39.3611H672.767V55.2399ZM686.623 55.2399V41.9471H681.565V39.3611H694.472V41.9471H689.413V55.2399H686.623ZM696.911 55.2399V39.3611H708.684V41.8564H699.701V45.9848H707.663V48.5027H699.701V52.7446H708.797V55.2399H696.911ZM721.884 39.3611H725.083L719.548 47.119L725.309 55.2399H722.02L717.824 49.1833L713.65 55.2399H710.451L716.191 47.1644L710.678 39.3611H713.967L717.892 45.1002L721.884 39.3611ZM727.726 55.2399V39.3611H730.516V45.9622H738.092V39.3611H740.882V55.2399H738.092V48.5481H730.516V55.2399H727.726ZM758.344 55.2399H755.553V43.7618L746.934 55.2399H744.506V39.3611H747.297V50.5443L755.667 39.3611H758.344V55.2399ZM761.974 55.2399V39.3611H764.764L764.741 45.9622H766.488L772.454 39.3611H775.97L768.734 47.0283L776.355 55.2399H772.771L766.556 48.4347H764.741L764.764 55.2399H761.974ZM791.994 55.2399H789.204V43.7618L780.584 55.2399H778.157V39.3611H780.947V50.5443L789.317 39.3611H791.994V55.2399ZM494.957 77.2399H492.167V65.7618L483.547 77.2399H481.12V61.3611H483.91V72.5443L492.28 61.3611H494.957V77.2399ZM512.307 77.5121C507.679 77.5121 504.231 73.9053 504.231 69.3459V69.3005C504.231 64.7864 507.611 61.0889 512.397 61.0889C515.346 61.0889 517.115 62.1097 518.635 63.5615L516.843 65.6257C515.55 64.4461 514.212 63.6749 512.375 63.6749C509.38 63.6749 507.157 66.1474 507.157 69.2551V69.3005C507.157 72.4082 509.358 74.9261 512.397 74.9261C514.325 74.9261 515.596 74.1549 516.957 72.8846L518.749 74.6993C517.138 76.4459 515.255 77.5121 512.307 77.5121ZM535.087 77.2399H532.297V65.7618L523.677 77.2399H521.25V61.3611H524.04V72.5443L532.41 61.3611H535.087V77.2399ZM546.09 77.5121C541.462 77.5121 538.014 73.9053 538.014 69.3459V69.3005C538.014 64.7864 541.394 61.0889 546.18 61.0889C549.129 61.0889 550.899 62.1097 552.418 63.5615L550.626 65.6257C549.333 64.4461 547.995 63.6749 546.158 63.6749C543.163 63.6749 540.94 66.1474 540.94 69.2551V69.3005C540.94 72.4082 543.141 74.9261 546.18 74.9261C548.108 74.9261 549.379 74.1549 550.74 72.8846L552.532 74.6993C550.921 76.4459 549.038 77.5121 546.09 77.5121ZM558.912 77.2399V63.9471H553.853V61.3611H566.76V63.9471H561.702V77.2399H558.912ZM569.2 77.2399V61.3611H580.973V63.8564H571.99V67.9848H579.952V70.5027H571.99V74.7446H581.086V77.2399H569.2ZM583.942 77.2399V61.3611H586.914L591.746 68.8695L596.577 61.3611H599.549V77.2399H596.759V65.8525L591.746 73.3382H591.655L586.687 65.8979V77.2399H583.942ZM614.361 77.2399H611.253L614.429 71.773L608.077 61.3611H611.253L615.971 69.2778L620.281 61.3611H623.389L614.361 77.2399ZM625.357 77.2399V61.3611H638.446V77.2399H635.633V63.9017H628.148V77.2399H625.357ZM642.05 77.2399V61.3611H648.31C652.03 61.3611 654.344 63.4707 654.344 66.6692V66.7145C654.344 70.2532 651.509 72.136 647.993 72.136H644.84V77.2399H642.05ZM644.84 69.6181H648.083C650.193 69.6181 651.509 68.4385 651.509 66.7826V66.7372C651.509 64.8545 650.17 63.9017 648.083 63.9017H644.84V69.6181ZM653.792 77.2399L660.779 61.2477H663.365L670.351 77.2399H667.402L665.792 73.4063H658.283L656.65 77.2399H653.792ZM659.304 70.9337H664.771L662.026 64.5822L659.304 70.9337ZM672.621 77.2399V61.3611H679.743C681.581 61.3611 682.964 61.8375 683.894 62.7675C684.598 63.4707 684.961 64.3554 684.961 65.3989V65.4442C684.961 67.3724 683.872 68.3705 682.692 68.9829C684.575 69.6408 685.845 70.6615 685.845 72.8392V72.8846C685.845 75.72 683.509 77.2399 679.97 77.2399H672.621ZM682.17 65.8979V65.8525C682.17 64.5822 681.195 63.8337 679.38 63.8337H675.365V68.0529H679.176C680.991 68.0529 682.17 67.3497 682.17 65.8979ZM683.055 72.5897V72.5443C683.055 71.1833 681.989 70.412 679.789 70.412H675.365V74.7673H679.993C681.898 74.7673 683.055 74.0414 683.055 72.5897ZM696.388 61.2477L703.216 77.2399H700.108L695.095 65.104L690.105 77.2399H687.088L693.893 61.2477H696.388ZM705.495 77.2399V61.3611H717.268V63.8564H708.286V67.9848H716.248V70.5027H708.286V74.7446H717.382V77.2399H705.495ZM720.238 77.2399V61.3611H723.028V67.9622H730.605V61.3611H733.395V77.2399H730.605V70.5481H723.028V77.2399H720.238ZM750.856 77.2399H748.066V65.7618L739.446 77.2399H737.019V61.3611H739.809V72.5443L748.179 61.3611H750.856V77.2399ZM766.804 61.3611V77.2399H764.014V71.705H760.702L756.664 77.2399H753.307L757.708 71.3421C755.462 70.7296 753.829 69.1417 753.829 66.5784V66.5557C753.829 63.1305 756.324 61.3611 760.203 61.3611H766.804ZM764.014 63.9017H759.953C757.866 63.9017 756.664 64.8318 756.664 66.5331V66.5557C756.664 68.2797 757.98 69.2324 759.999 69.2324H764.014V63.9017Z" fill="white"/>
<line x1="459.598" y1="16.4932" x2="459.598" y2="77.8061" stroke="white" stroke-width="0.493128"/>
<path d="M0 13.9824H16.5903V77.4496H7.23414V22.9527H0V13.9824Z" fill="white"/>
<path d="M56.3279 13.9824L39.3517 41.2791L33.7573 38.6749C34.5932 38.2248 35.5257 37.9032 36.5545 37.7103C37.5833 37.5174 38.6122 37.421 39.6411 37.421C42.0203 37.2923 44.3352 37.5496 46.5858 38.1926C48.8365 38.8356 50.862 39.8967 52.6625 41.3756C54.463 42.8546 55.8779 44.8158 56.9066 47.2591C57.9997 49.7027 58.5464 52.725 58.5464 56.326C58.5464 60.8275 57.5172 64.7178 55.4598 67.997C53.4019 71.2767 50.6689 73.8166 47.261 75.6171C43.9172 77.3533 40.1876 78.2213 36.0722 78.2213C32.9857 78.2213 29.8991 77.6107 26.8126 76.3889C23.7903 75.1028 21.2825 73.431 19.2891 71.373L24.0154 63.6567C25.2371 65.0715 26.909 66.3572 29.031 67.5146C31.2173 68.6725 33.4679 69.2512 35.7828 69.2512C38.2264 69.2512 40.4127 68.7045 42.3418 67.6114C44.3352 66.5183 45.9106 64.9748 47.0679 62.9817C48.2897 60.9238 48.9009 58.5445 48.9009 55.844C48.9009 52.1143 47.8078 49.1883 45.6212 47.0665C43.4993 44.9444 40.5735 43.8835 36.8439 43.8835C34.9791 43.8835 33.4036 44.0442 32.1176 44.3657C30.8315 44.6229 29.6741 44.9444 28.6452 45.3302L28.3558 44.9444L42.4999 22.9527H22.9544V13.9824H56.3279Z" fill="white"/>
<path d="M47.0855 87.792C47.0489 87.8287 46.9944 87.8104 46.9215 87.7376C46.7392 87.6643 46.5388 87.5003 46.3201 87.2453C46.1014 86.9536 45.8827 86.644 45.6639 86.3157C45.4817 85.9511 45.3359 85.6049 45.2265 85.2771C45.1172 84.9126 45.0625 84.6392 45.0625 84.4569C45.0625 84.3841 45.427 84.1286 46.156 83.6912C46.9215 83.2539 47.8512 82.7255 48.9447 82.1059C50.0744 81.4863 51.2958 80.8301 52.6077 80.1372C53.9564 79.4082 55.2143 78.7341 56.3807 78.1145C57.5832 77.4945 58.6039 76.966 59.4424 76.5287C60.2809 76.0547 60.791 75.7813 60.9733 75.7085C61.6662 75.3079 62.3585 74.925 63.0509 74.5605C63.7438 74.196 64.4545 73.8498 65.1835 73.5215C67.4801 72.3551 69.74 71.1887 71.9633 70.0224C74.187 68.856 76.4286 67.6892 78.6885 66.5228C82.5525 64.518 86.4161 62.5315 90.2797 60.5633C94.1438 58.5951 98.0257 56.6264 101.926 54.6582C102.035 54.6216 102.363 54.4577 102.91 54.166C103.457 53.8742 104.113 53.5281 104.879 53.1274C105.68 52.7262 106.519 52.3072 107.394 51.8699C108.305 51.3959 109.143 50.9764 109.909 50.6119C110.674 50.2112 111.312 49.8829 111.822 49.6278C112.333 49.3728 112.606 49.245 112.642 49.245C112.752 49.245 112.971 49.3544 113.299 49.5733C113.627 49.7918 113.973 50.0473 114.338 50.3385C114.702 50.5941 115.048 50.8491 115.376 51.1042C115.705 51.3231 115.923 51.4687 116.033 51.5415C116.105 51.6143 116.324 51.7966 116.689 52.0883C117.053 52.38 117.399 52.7079 117.727 53.0724C118.092 53.4008 118.384 53.7286 118.602 54.0565C118.858 54.3482 118.912 54.5488 118.766 54.6582C116.616 56.1525 114.52 57.7017 112.479 59.3058C110.474 60.8729 108.487 62.5315 106.519 64.2813L102.692 67.8353C101.379 69.1111 100.049 70.4047 98.7002 71.7172C97.3878 72.993 96.0758 74.2871 94.7633 75.5991L91.0454 79.8638C91.0087 79.9005 90.9359 79.8638 90.8265 79.7548C90.6442 79.6816 90.4441 79.4993 90.2252 79.2081C90.0068 78.9164 89.8062 78.6063 89.624 78.2785C89.4417 77.914 89.2778 77.5678 89.1317 77.2394C89.0222 76.8749 88.986 76.6015 89.0222 76.4193C89.0222 76.3464 89.1866 76.1097 89.5145 75.7085C89.879 75.3079 90.3163 74.8339 90.8265 74.2871C91.3371 73.7403 91.8839 73.1569 92.4668 72.5374C93.0869 71.8811 93.6698 71.2615 94.2166 70.6781C94.8 70.0952 95.3101 69.5851 95.7474 69.1473C96.1848 68.7099 96.4948 68.4182 96.6771 68.2726H96.6226L100.504 64.3907C102.254 62.6409 104.022 60.8912 105.808 59.1414C107.594 57.3921 109.38 55.6607 111.167 53.9475L72.1822 74.5605L47.0855 87.792Z" fill="white"/>
<path d="M104.118 73.412C103.316 74.5055 102.861 75.2895 102.751 75.7635C102.679 76.2369 102.806 76.5287 103.134 76.6381C103.499 76.7109 104.009 76.6381 104.665 76.4192C105.321 76.2008 106.014 75.9274 106.743 75.599C107.472 75.2345 108.164 74.87 108.82 74.5055C109.477 74.141 109.968 73.8676 110.297 73.6853C110.661 73.4303 110.88 73.3575 110.953 73.4669C111.026 73.5397 111.226 73.7037 111.554 73.9587C111.59 73.9954 111.554 74.1048 111.445 74.2871L110.953 74.6149C110.406 75.0523 109.841 75.4717 109.258 75.8724C108.675 76.2736 108.073 76.6564 107.453 77.0209C107.089 77.2394 106.615 77.4944 106.032 77.7861C105.485 78.0778 104.902 78.3146 104.282 78.4968C103.663 78.6429 103.061 78.6974 102.478 78.6613C101.895 78.588 101.439 78.2967 101.111 77.7861L99.7986 75.8724C99.4707 75.3989 99.3613 74.87 99.4707 74.2871C99.6164 73.6675 99.8536 73.0658 100.181 72.4828C100.509 71.8994 100.892 71.3526 101.329 70.8425C101.767 70.3319 102.15 69.9312 102.478 69.6395C102.952 69.1655 103.444 68.7282 103.954 68.327C104.465 67.8897 104.993 67.5252 105.54 67.2335C105.941 67.0512 106.378 66.8873 106.852 66.7417C107.362 66.5594 107.818 66.5411 108.219 66.6867L110.953 69.694C111.026 69.7673 111.044 69.8762 111.007 70.0223C110.971 70.1318 110.898 70.2591 110.789 70.4047C110.68 70.5508 110.552 70.6781 110.406 70.7875C110.297 70.897 110.224 70.9698 110.187 71.0064C109.641 71.6627 108.893 72.1911 107.946 72.5918C107.034 72.9563 106.159 73.1752 105.321 73.248L104.118 73.412ZM108.82 69.8584C108.784 69.7489 108.675 69.6578 108.493 69.585C108.201 69.4756 107.872 69.5117 107.508 69.694C107.18 69.8401 106.834 70.0585 106.469 70.3502C106.141 70.6419 105.831 70.9515 105.54 71.2798C105.248 71.6077 105.03 71.8811 104.884 72.1C105.576 71.9539 106.323 71.6988 107.126 71.3343C107.927 70.9698 108.493 70.478 108.82 69.8584Z" fill="white"/>
<path d="M118.806 69.3115L122.36 67.1244C122.615 66.9055 122.943 66.9055 123.344 67.1244H123.453C123.745 67.27 124.036 67.4889 124.328 67.7801C124.401 67.8534 124.51 67.9624 124.656 68.1085C124.802 68.2541 124.948 68.418 125.094 68.6003C125.239 68.7825 125.349 68.9648 125.422 69.1471C125.531 69.2932 125.568 69.4205 125.531 69.5299L129.522 67.1244C129.777 66.9055 130.106 66.9055 130.506 67.1244H130.616C130.908 67.27 131.199 67.4889 131.491 67.7801C131.673 67.9262 131.928 68.1996 132.256 68.6003C132.621 69.0014 132.766 69.3293 132.694 69.5849C132.621 69.7671 132.493 69.9127 132.311 70.0222C132.165 70.1316 132.019 70.2589 131.873 70.4045C131.582 70.6601 131.308 70.9152 131.053 71.1702C130.835 71.4253 130.598 71.6987 130.342 71.9904L127.663 75.1071L126.406 76.583C126.843 76.5102 127.335 76.3646 127.882 76.1457C128.465 75.8906 129.048 75.6355 129.632 75.3805C130.251 75.0888 130.835 74.7971 131.382 74.5053C131.928 74.1775 132.384 73.9041 132.748 73.6852C133.186 73.4301 133.441 73.339 133.514 73.4118C133.586 73.4851 133.787 73.6673 134.115 73.9586C134.115 73.9952 134.079 74.1047 134.006 74.2869L133.514 74.6148C133.04 74.9793 132.42 75.435 131.655 75.9817C130.889 76.4919 130.087 76.9842 129.249 77.4581C128.41 77.8954 127.572 78.2416 126.734 78.4967C125.895 78.7522 125.166 78.7701 124.547 78.5517C124.328 78.5517 124.073 78.3511 123.781 77.9499C123.489 77.5492 123.289 77.2575 123.18 77.0753C123.07 76.8564 122.925 76.583 122.743 76.2551C122.597 75.8906 122.542 75.581 122.578 75.3255C122.578 75.1799 122.724 74.9248 123.016 74.5603C123.307 74.1958 123.636 73.7946 124 73.3573C124.365 72.92 124.729 72.5188 125.094 72.1543C125.494 71.7536 125.786 71.4436 125.968 71.2247C124.51 71.9904 123.271 72.7739 122.25 73.5762C121.266 74.3414 120.245 75.3622 119.189 76.638L117.439 78.5517C117.184 78.5517 116.91 78.3511 116.619 77.9499C116.327 77.5492 116.126 77.2575 116.017 77.0753C115.908 76.8564 115.762 76.583 115.58 76.2551C115.434 75.8906 115.379 75.581 115.416 75.3255C115.452 75.1799 115.616 74.9248 115.908 74.5603C116.2 74.1592 116.528 73.7585 116.892 73.3573C117.257 72.92 117.621 72.5005 117.986 72.0998C118.35 71.6987 118.623 71.407 118.806 71.2247C116.874 72.136 115.233 73.4301 113.885 75.1071L110.878 78.4967C110.768 78.6062 110.641 78.6062 110.495 78.4967C110.349 78.3511 110.185 78.1871 110.003 78.0049C109.857 77.8226 109.729 77.6404 109.62 77.4581C109.511 77.2392 109.438 77.1119 109.402 77.0753C109.292 76.8564 109.146 76.583 108.964 76.2551C108.818 75.8906 108.764 75.581 108.8 75.3255C108.8 75.1799 108.964 74.8882 109.292 74.4509C109.657 74.0135 110.039 73.5579 110.44 73.0839C110.841 72.61 111.242 72.1726 111.643 71.7715C112.044 71.3708 112.299 71.0974 112.408 70.9513C112.518 70.8423 112.773 70.5868 113.174 70.1861C113.575 69.7488 114.013 69.3115 114.487 68.8737C114.96 68.4002 115.379 67.9807 115.744 67.6162C116.145 67.2517 116.4 67.0694 116.509 67.0694C116.691 67.0694 116.929 67.2155 117.22 67.5067C117.548 67.7623 117.767 67.9445 117.876 68.0535C118.022 68.2358 118.186 68.4364 118.368 68.6553C118.587 68.8737 118.733 69.0926 118.806 69.3115Z" fill="white"/>
<path d="M63.6045 58.4497C67.1849 61.4828 71.8146 63.3157 76.8741 63.3157C77.5778 63.3157 78.2726 63.2781 78.9579 63.2091L65.2026 70.3021C63.7102 69.6684 62.2785 68.9206 60.9219 68.0633C62.4462 65.1284 63.3861 61.8802 63.6045 58.4497Z" fill="white"/>
<path d="M76.8708 12.8706C93.3849 12.8706 106.771 26.2575 106.771 42.7713C106.771 44.9893 106.527 47.1502 106.069 49.2302L92.2998 56.3284C95.4818 52.71 97.4162 47.9681 97.4162 42.7713C97.4157 31.4252 88.2168 22.2279 76.8708 22.2279C66.5643 22.2281 58.0301 29.8176 56.5533 39.713C54.2332 37.3253 51.4369 35.35 48.3047 33.9185C52.0786 21.7273 63.4396 12.8707 76.8708 12.8706Z" fill="white"/>
<path d="M202.563 0C223.541 0 234.03 6.22686e-05 240.547 6.51712C247.065 13.0342 247.065 23.5234 247.065 44.5016V49.4459C247.065 70.4238 247.065 80.9131 240.547 87.4302C234.03 93.9473 223.541 93.9473 202.563 93.9473H197.619C176.641 93.9473 166.151 93.9473 159.634 87.4302C153.117 80.9131 153.117 70.4238 153.117 49.4459V44.5016C153.117 23.5234 153.117 13.0342 159.634 6.51712C166.151 6.22686e-05 176.641 0 197.619 0H202.563ZM191.371 54.9611C191.141 54.7891 190.798 54.8464 190.683 55.0757L178.757 72.4362C178.528 72.78 178.757 73.2385 179.158 73.2385H182.828C183 73.2385 183.172 73.1812 183.229 73.0093L194.008 57.3102C194.123 57.081 194.066 56.8517 193.894 56.6798L191.371 54.9611ZM204.787 49.5751C204.558 49.4036 204.214 49.4609 204.099 49.6897L188.504 72.4362C188.275 72.78 188.504 73.2385 188.906 73.2385H192.575C192.747 73.2385 192.919 73.1812 192.976 73.0093L205.188 55.2476C205.36 55.0184 205.59 54.9611 205.819 55.133L225.083 68.3683C225.427 68.5975 225.886 68.3683 225.886 67.9671V64.3004C225.886 64.1284 225.829 63.9565 225.657 63.8992L204.787 49.5751ZM174.687 28.8342C174.343 28.6051 173.884 28.8342 173.884 29.2351V32.9022C173.884 33.074 173.941 33.2458 174.113 33.3031L188.447 43.158C188.676 43.3298 188.734 43.6164 188.562 43.8456L173.941 65.1027C173.884 65.16 173.826 65.2741 173.826 65.3887V70.8894C173.826 71.4051 174.457 71.5766 174.744 71.1754L194.123 42.8144C194.352 42.5852 194.295 42.2987 194.123 42.1841L174.687 28.8342ZM219.35 49.747C219.121 49.5751 218.777 49.6328 218.662 49.8616L216.942 52.3258C216.77 52.5546 216.827 52.898 217.056 53.0126L225.083 58.5705C225.427 58.7997 225.886 58.571 225.886 58.1698V54.6172C225.886 54.4458 225.829 54.2734 225.714 54.2161L219.35 49.747ZM186.44 21.2138C185.924 21.2139 185.752 21.8439 186.211 22.1304L225.141 48.8878C225.484 49.1171 225.943 48.8874 225.943 48.4867V44.8199C225.943 44.648 225.829 44.5331 225.714 44.4185L192.059 21.3285C192.002 21.2712 191.887 21.2139 191.772 21.2138H186.44ZM174.4 21.2138C174.113 21.2139 173.884 21.4431 173.884 21.7294V23.6203C173.884 23.7921 173.998 23.9638 174.113 24.0212L186.383 31.9857C186.612 32.1575 186.899 32.1001 187.071 31.871L188.791 29.3498C188.963 29.1207 188.906 28.8913 188.676 28.6622L177.324 21.2712C177.267 21.2139 177.152 21.2138 177.038 21.2138H174.4Z" fill="white"/>
<path d="M268.891 32.1871V16.2655H275.168C278.898 16.2655 281.218 18.3808 281.218 21.5879V21.6334C281.218 25.1816 278.375 27.0694 274.85 27.0694H271.688V32.1871H268.891ZM271.688 24.5448H274.941C277.056 24.5448 278.375 23.362 278.375 21.7016V21.6561C278.375 19.7682 277.034 18.813 274.941 18.813H271.688V24.5448Z" fill="white"/>
<path d="M291.224 32.4599C286.334 32.4599 282.922 28.7524 282.922 24.2716V24.2262C282.922 19.7681 286.379 15.9924 291.27 15.9924C296.16 15.9924 299.571 19.6999 299.571 24.1806V24.2262C299.571 28.6842 296.114 32.4599 291.224 32.4599ZM291.27 29.8669C294.431 29.8669 296.637 27.365 296.637 24.2716V24.2262C296.637 21.1328 294.408 18.5854 291.224 18.5854C288.062 18.5854 285.856 21.0873 285.856 24.1806V24.2262C285.856 27.3195 288.085 29.8669 291.27 29.8669Z" fill="white"/>
<path d="M309.894 32.4599C305.254 32.4599 301.797 28.8434 301.797 24.2716V24.2262C301.797 19.6999 305.186 15.9924 309.985 15.9924C312.942 15.9924 314.716 17.0159 316.24 18.4716L314.443 20.5415C313.147 19.3587 311.805 18.5854 309.962 18.5854C306.96 18.5854 304.731 21.0646 304.731 24.1806V24.2262C304.731 27.3423 306.937 29.8669 309.985 29.8669C311.918 29.8669 313.192 29.0936 314.557 27.8199L316.354 29.6395C314.739 31.3909 312.851 32.4599 309.894 32.4599Z" fill="white"/>
<path d="M325.808 32.4599C321.168 32.4599 317.711 28.8434 317.711 24.2716V24.2262C317.711 19.6999 321.1 15.9924 325.899 15.9924C328.856 15.9924 330.63 17.0159 332.154 18.4716L330.357 20.5415C329.061 19.3587 327.719 18.5854 325.876 18.5854C322.874 18.5854 320.645 21.0646 320.645 24.1806V24.2262C320.645 27.3423 322.851 29.8669 325.899 29.8669C327.833 29.8669 329.106 29.0936 330.471 27.8199L332.268 29.6395C330.653 31.3909 328.765 32.4599 325.808 32.4599Z" fill="white"/>
<path d="M348.648 32.1871H345.85V20.6781L337.207 32.1871H334.773V16.2655H337.571V27.4789L345.964 16.2655H348.648V32.1871Z" fill="white"/>
<path d="M359.226 14.9918C357.043 14.9918 355.473 13.9228 355.291 11.944H357.247C357.52 12.6491 358.066 13.0812 359.226 13.0812C360.386 13.0812 360.932 12.6491 361.205 11.944H363.161C362.979 13.9228 361.409 14.9918 359.226 14.9918ZM366.163 32.1871H363.366V20.6781L354.723 32.1871H352.289V16.2655H355.086V27.4789L363.48 16.2655H366.163V32.1871Z" fill="white"/>
<path d="M377.191 32.4599C372.551 32.4599 369.094 28.8434 369.094 24.2716V24.2262C369.094 19.6999 372.482 15.9924 377.282 15.9924C380.239 15.9924 382.013 17.0159 383.537 18.4716L381.74 20.5415C380.444 19.3587 379.101 18.5854 377.259 18.5854C374.257 18.5854 372.028 21.0646 372.028 24.1806V24.2262C372.028 27.3423 374.234 29.8669 377.282 29.8669C379.215 29.8669 380.489 29.0936 381.854 27.8199L383.65 29.6395C382.035 31.3909 380.148 32.4599 377.191 32.4599Z" fill="white"/>
<path d="M386.164 32.1871V16.2655H388.962L388.939 22.8843H390.69L396.672 16.2655H400.198L392.942 23.9534L400.585 32.1871H396.991L390.759 25.3635H388.939L388.962 32.1871H386.164Z" fill="white"/>
<path d="M416.265 32.1871H413.468V20.6781L404.825 32.1871H402.391V16.2655H405.188V27.4789L413.582 16.2655H416.265V32.1871Z" fill="white"/>
<path d="M426.843 14.9918C424.66 14.9918 423.091 13.9228 422.908 11.944H424.864C425.137 12.6491 425.684 13.0812 426.843 13.0812C428.003 13.0812 428.549 12.6491 428.822 11.944H430.778C430.596 13.9228 429.027 14.9918 426.843 14.9918ZM433.78 32.1871H430.983V20.6781L422.34 32.1871H419.906V16.2655H422.704V27.4789L431.097 16.2655H433.78V32.1871Z" fill="white"/>
<path d="M273.738 55.1106H270.622L273.806 49.6287L267.438 39.1888H270.622L275.353 47.1269L279.674 39.1888H282.79L273.738 55.1106Z" fill="white"/>
<path d="M284.758 55.1106V39.1888H287.556V45.8077H295.152V39.1888H297.95V55.1106H295.152V48.4008H287.556V55.1106H284.758Z" fill="white"/>
<path d="M315.461 55.1106H312.663V43.6014L304.02 55.1106H301.586V39.1888H304.384V50.4024L312.776 39.1888H315.461V55.1106Z" fill="white"/>
<path d="M319.102 55.1106V39.1888H326.243C328.086 39.1888 329.473 39.6665 330.406 40.599C331.111 41.3042 331.475 42.1912 331.475 43.2375V43.283C331.475 45.2163 330.383 46.2171 329.2 46.8312C331.088 47.491 332.362 48.5145 332.362 50.6979V50.7434C332.362 53.5867 330.019 55.1106 326.471 55.1106H319.102ZM328.677 43.7379V43.6924C328.677 42.4187 327.699 41.6681 325.88 41.6681H321.854V45.8987H325.675C327.495 45.8987 328.677 45.1936 328.677 43.7379ZM329.564 50.4475V50.4024C329.564 49.0373 328.495 48.2642 326.289 48.2642H321.854V52.6313H326.494C328.404 52.6313 329.564 51.9032 329.564 50.4475Z" fill="white"/>
<path d="M335.062 55.1106V39.1888H346.867V41.6908H337.86V45.8304H345.844V48.3553H337.86V52.6083H346.981V55.1106H335.062Z" fill="white"/>
<path d="M349.844 55.1106V39.1888H356.121C359.852 39.1888 362.172 41.3042 362.172 44.5112V44.5567C362.172 48.1049 359.329 49.9928 355.803 49.9928H352.642V55.1106H349.844ZM352.642 47.4679H355.894C358.009 47.4679 359.329 46.2853 359.329 44.625V44.5794C359.329 42.6916 357.987 41.7363 355.894 41.7363H352.642V47.4679Z" fill="white"/>
<path d="M371.972 55.3833C367.332 55.3833 363.875 51.7668 363.875 47.1949V47.1493C363.875 42.6232 367.264 38.9158 372.063 38.9158C375.02 38.9158 376.795 39.9393 378.318 41.395L376.522 43.4648C375.225 42.282 373.883 41.5087 372.041 41.5087C369.038 41.5087 366.809 43.9879 366.809 47.1042V47.1493C366.809 50.2655 369.016 52.7904 372.063 52.7904C373.997 52.7904 375.27 52.0172 376.635 50.7433L378.432 52.563C376.817 54.3142 374.929 55.3833 371.972 55.3833Z" fill="white"/>
<path d="M394.82 55.1106H392.022V43.6014L383.379 55.1106H380.945V39.1888H383.743V50.4024L392.136 39.1888H394.82V55.1106Z" fill="white"/>
<path d="M402.346 55.1106V41.7818H397.273V39.1888H410.215V41.7818H405.143V55.1106H402.346Z" fill="white"/>
<path d="M412.664 55.1106V39.1888H424.469V41.6908H415.462V45.8304H423.445V48.3553H415.462V52.6083H424.583V55.1106H412.664Z" fill="white"/>
<path d="M431.314 55.1106V41.7818H426.242V39.1888H439.184V41.7818H434.112V55.1106H431.314Z" fill="white"/>
<path d="M272.783 78.0334V64.7046H267.711V62.1117H280.653V64.7046H275.581V78.0334H272.783Z" fill="white"/>
<path d="M283.094 78.0334V62.1117H289.372C293.102 62.1117 295.422 64.2269 295.422 67.4343V67.4794C295.422 71.0278 292.579 72.9156 289.053 72.9156H285.891V78.0334H283.094ZM285.891 70.3908H289.144C291.26 70.3908 292.579 69.208 292.579 67.548V67.5024C292.579 65.6145 291.237 64.6591 289.144 64.6591H285.891V70.3908Z" fill="white"/>
<path d="M294.867 78.0336L301.873 61.9982H304.466L311.471 78.0336H308.514L306.899 74.1897H299.371L297.733 78.0336H294.867ZM300.394 71.7104H305.876L303.124 65.3418L300.394 71.7104Z" fill="white"/>
<path d="M313.75 78.0334V62.1117H316.548V68.7307H324.145V62.1117H326.942V78.0334H324.145V71.3237H316.548V78.0334H313.75Z" fill="white"/>
<path d="M337.965 78.3067C333.324 78.3067 329.867 74.6902 329.867 70.1182V70.0727C329.867 65.5467 333.256 61.8391 338.056 61.8391C341.013 61.8391 342.787 62.8627 344.311 64.3184L342.513 66.388C341.217 65.2052 339.875 64.4321 338.033 64.4321C335.031 64.4321 332.802 66.9113 332.802 70.0276V70.0727C332.802 73.1889 335.008 75.7137 338.056 75.7137C339.989 75.7137 341.263 74.9405 342.628 73.6666L344.424 75.4864C342.809 77.2376 340.921 78.3067 337.965 78.3067Z" fill="white"/>
<path d="M346.938 78.0334V62.1117H360.061V78.0334H357.241V64.6591H349.735V78.0334H346.938Z" fill="white"/>
<path d="M371.27 78.3067C366.38 78.3067 362.969 74.599 362.969 70.1182V70.0727C362.969 65.6149 366.426 61.8391 371.316 61.8391C376.206 61.8391 379.618 65.5467 379.618 70.0276V70.0727C379.618 74.5309 376.161 78.3067 371.27 78.3067ZM371.316 75.7137C374.478 75.7137 376.684 73.2119 376.684 70.1182V70.0727C376.684 66.9794 374.455 64.4321 371.27 64.4321C368.109 64.4321 365.903 66.9339 365.903 70.0276V70.0727C365.903 73.1663 368.132 75.7137 371.316 75.7137Z" fill="white"/>
<path d="M382.539 78.0334V62.1117H388.817C392.547 62.1117 394.867 64.2269 394.867 67.4343V67.4794C394.867 71.0278 392.024 72.9156 388.499 72.9156H385.337V78.0334H382.539ZM385.337 70.3908H388.589C390.705 70.3908 392.024 69.208 392.024 67.548V67.5024C392.024 65.6145 390.682 64.6591 388.589 64.6591H385.337V70.3908Z" fill="white"/>
<path d="M401.174 78.0334V64.7046H396.102V62.1117H409.043V64.7046H403.971V78.0334H401.174Z" fill="white"/>
<path d="M408.102 78.0336L415.107 61.9982H417.7L424.705 78.0336H421.748L420.134 74.1897H412.605L410.967 78.0336H408.102ZM413.628 71.7104H419.11L416.358 65.3418L413.628 71.7104Z" fill="white"/>
</svg>
