<svg width="672" height="83" viewBox="0 0 672 83" fill="none" xmlns="http://www.w3.org/2000/svg">
<path d="M437.279 28.3477H434.814V18.2071L427.198 28.3477H425.054V14.3192H427.519V24.1992L434.914 14.3192H437.279V28.3477ZM440.486 28.3477V14.3192H442.951V20.151H449.645V14.3192H452.11V28.3477H449.645V22.4357H442.951V28.3477H440.486ZM461.825 28.5881C457.737 28.5881 454.69 25.4017 454.69 21.3735V21.3334C454.69 17.3453 457.676 14.0787 461.905 14.0787C464.51 14.0787 466.073 14.9806 467.416 16.2632L465.833 18.0869C464.691 17.0447 463.508 16.3634 461.885 16.3634C459.24 16.3634 457.276 18.5478 457.276 21.2934V21.3334C457.276 24.079 459.22 26.3035 461.905 26.3035C463.608 26.3035 464.731 25.6221 465.933 24.4999L467.516 26.1031C466.093 27.6462 464.43 28.5881 461.825 28.5881ZM473.153 28.3477V16.6038H468.684V14.3192H480.087V16.6038H475.618V28.3477H473.153ZM494.467 28.3477H492.002V18.2071L484.386 28.3477H482.242V14.3192H484.707V24.1992L492.102 14.3192H494.467V28.3477ZM501.101 28.3477V16.6038H496.632V14.3192H508.035V16.6038H503.566V28.3477H501.101ZM514.459 28.3477H511.713L514.519 23.5179L508.907 14.3192H511.713L515.882 21.3134L519.689 14.3192H522.435L514.459 28.3477ZM527.581 28.3477V16.6038H523.112V14.3192H534.515V16.6038H530.046V28.3477H527.581ZM423.852 34.3192H426.818L431.748 40.1911H432.87L432.85 34.3192H435.295L435.275 40.1911H436.397L441.347 34.3192H444.293L438.441 41.1531L444.674 48.3477H441.708L436.517 42.2954H435.275L435.295 48.3477H432.85L432.87 42.2954H431.567L426.397 48.3477H423.491L429.724 41.1531L423.852 34.3192ZM446.299 48.3477V34.3192H456.7V36.5237H448.764V40.1711H455.798V42.3956H448.764V46.1432H456.8V48.3477H446.299ZM466.338 34.219L472.37 48.3477H469.625L465.196 37.6259L460.787 48.3477H458.121L464.133 34.219H466.338ZM474.384 48.3477V34.3192H484.785V36.5237H476.849V40.1711H483.883V42.3956H476.849V46.1432H484.885V48.3477H474.384ZM488.111 38.0067L486.608 36.3233C488.05 35.0407 489.774 34.0787 492.299 34.0787C495.486 34.0787 497.45 35.5617 497.45 37.8464V37.8664C497.45 39.6099 496.508 40.612 494.884 41.1531C496.628 41.5739 497.81 42.5559 497.81 44.4598V44.4798C497.81 46.8246 495.686 48.5881 492.099 48.5881C489.594 48.5881 487.75 47.7064 486.367 46.5039L487.83 44.7203C489.032 45.6823 490.395 46.3837 492.159 46.3837C494.003 46.3837 495.305 45.6021 495.305 44.2994V44.2794C495.305 42.9968 494.103 42.2954 492.099 42.3154H489.574V40.2312H492.139C493.842 40.2312 494.944 39.4897 494.944 38.2071V38.1871C494.944 37.0047 493.922 36.2832 492.239 36.2832C490.616 36.2832 489.293 37.0247 488.111 38.0067ZM500.297 48.3477V34.3192H502.762V40.151H509.455V34.3192H511.92V48.3477H509.455V42.4357H502.762V48.3477H500.297ZM521.815 48.5881C517.507 48.5881 514.501 45.3215 514.501 41.3735V41.3334C514.501 37.4055 517.547 34.0787 521.856 34.0787C526.164 34.0787 529.17 37.3453 529.17 41.2934V41.3334C529.17 45.2614 526.124 48.5881 521.815 48.5881ZM521.856 46.3035C524.641 46.3035 526.585 44.099 526.585 41.3735V41.3334C526.585 38.6079 524.621 36.3634 521.815 36.3634C519.03 36.3634 517.086 38.5678 517.086 41.2934V41.3334C517.086 44.059 519.05 46.3035 521.856 46.3035ZM529.823 46.1031H531.205L536.316 34.219H538.921L544.011 46.1031H545.414V51.2335H543.09V48.3477H532.147V51.2335H529.823V46.1031ZM537.578 36.9646L533.751 46.1833H541.406L537.578 36.9646ZM553.404 48.5881C549.095 48.5881 546.089 45.3215 546.089 41.3735V41.3334C546.089 37.4055 549.135 34.0787 553.444 34.0787C557.753 34.0787 560.759 37.3453 560.759 41.2934V41.3334C560.759 45.2614 557.712 48.5881 553.404 48.5881ZM553.444 46.3035C556.229 46.3035 558.173 44.099 558.173 41.3735V41.3334C558.173 38.6079 556.209 36.3634 553.404 36.3634C550.618 36.3634 548.674 38.5678 548.674 41.2934V41.3334C548.674 44.059 550.638 46.3035 553.444 46.3035ZM563.336 48.3477V34.3192H568.867C572.154 34.3192 574.198 36.183 574.198 39.0087V39.0488C574.198 42.1751 571.693 43.8385 568.587 43.8385H565.801V48.3477H563.336ZM565.801 41.614H568.667C570.531 41.614 571.693 40.5719 571.693 39.1089V39.0688C571.693 37.4055 570.511 36.5638 568.667 36.5638H565.801V41.614ZM583.015 48.5881C578.707 48.5881 575.7 45.3215 575.7 41.3735V41.3334C575.7 37.4055 578.747 34.0787 583.055 34.0787C587.364 34.0787 590.37 37.3453 590.37 41.2934V41.3334C590.37 45.2614 587.324 48.5881 583.015 48.5881ZM583.055 46.3035C585.841 46.3035 587.785 44.099 587.785 41.3735V41.3334C587.785 38.6079 585.821 36.3634 583.015 36.3634C580.23 36.3634 578.286 38.5678 578.286 41.2934V41.3334C578.286 44.059 580.25 46.3035 583.055 46.3035ZM590.708 34.3192H593.674L598.604 40.1911H599.726L599.706 34.3192H602.151L602.131 40.1911H603.253L608.203 34.3192H611.149L605.298 41.1531L611.53 48.3477H608.564L603.374 42.2954H602.131L602.151 48.3477H599.706L599.726 42.2954H598.424L593.253 48.3477H590.347L596.58 41.1531L590.708 34.3192ZM613.155 48.3477V34.3192H615.62V40.151H622.314V34.3192H624.779V48.3477H622.314V42.4357H615.62V48.3477H613.155ZM634.674 48.5881C630.365 48.5881 627.359 45.3215 627.359 41.3735V41.3334C627.359 37.4055 630.405 34.0787 634.714 34.0787C639.023 34.0787 642.029 37.3453 642.029 41.2934V41.3334C642.029 45.2614 638.983 48.5881 634.674 48.5881ZM634.714 46.3035C637.5 46.3035 639.444 44.099 639.444 41.3735V41.3334C639.444 38.6079 637.48 36.3634 634.674 36.3634C631.888 36.3634 629.944 38.5678 629.944 41.2934V41.3334C629.944 44.059 631.908 46.3035 634.714 46.3035ZM644.606 48.3477V34.3192H654.446V36.5638H647.071V48.3477H644.606ZM662.505 48.5881C658.196 48.5881 655.19 45.3215 655.19 41.3735V41.3334C655.19 37.4055 658.236 34.0787 662.545 34.0787C666.853 34.0787 669.86 37.3453 669.86 41.2934V41.3334C669.86 45.2614 666.813 48.5881 662.505 48.5881ZM662.545 46.3035C665.33 46.3035 667.274 44.099 667.274 41.3735V41.3334C667.274 38.6079 665.31 36.3634 662.505 36.3634C659.719 36.3634 657.775 38.5678 657.775 41.2934V41.3334C657.775 44.059 659.739 46.3035 662.545 46.3035ZM428.481 68.3477V56.6038H424.012V54.3192H435.415V56.6038H430.946V68.3477H428.481ZM437.57 68.3477V54.3192H443.101C446.388 54.3192 448.432 56.183 448.432 59.0087V59.0488C448.432 62.1751 445.927 63.8385 442.821 63.8385H440.035V68.3477H437.57ZM440.035 61.614H442.901C444.765 61.614 445.927 60.5719 445.927 59.1089V59.0688C445.927 57.4055 444.745 56.5638 442.901 56.5638H440.035V61.614ZM447.944 68.3477L454.117 54.219H456.401L462.574 68.3477H459.969L458.546 64.9608H451.912L450.469 68.3477H447.944ZM452.814 62.7764H457.644L455.219 57.165L452.814 62.7764ZM464.579 68.3477V54.3192H467.044V60.151H473.737V54.3192H476.202V68.3477H473.737V62.4357H467.044V68.3477H464.579ZM485.917 68.5881C481.829 68.5881 478.783 65.4017 478.783 61.3735V61.3334C478.783 57.3453 481.769 54.0787 485.998 54.0787C488.603 54.0787 490.166 54.9806 491.509 56.2632L489.926 58.0869C488.783 57.0447 487.601 56.3634 485.978 56.3634C483.332 56.3634 481.368 58.5478 481.368 61.2934V61.3334C481.368 64.079 483.312 66.3035 485.998 66.3035C487.701 66.3035 488.823 65.6221 490.026 64.4999L491.609 66.1031C490.186 67.6462 488.523 68.5881 485.917 68.5881ZM493.819 68.3477V54.3192H505.382V68.3477H502.897V56.5638H496.284V68.3477H493.819ZM515.259 68.5881C510.95 68.5881 507.944 65.3215 507.944 61.3735V61.3334C507.944 57.4055 510.991 54.0787 515.299 54.0787C519.608 54.0787 522.614 57.3453 522.614 61.2934V61.3334C522.614 65.2614 519.568 68.5881 515.259 68.5881ZM515.299 66.3035C518.085 66.3035 520.029 64.099 520.029 61.3735V61.3334C520.029 58.6079 518.065 56.3634 515.259 56.3634C512.474 56.3634 510.53 58.5678 510.53 61.2934V61.3334C510.53 64.059 512.494 66.3035 515.299 66.3035ZM525.192 68.3477V54.3192H530.723C534.009 54.3192 536.054 56.183 536.054 59.0087V59.0488C536.054 62.1751 533.548 63.8385 530.442 63.8385H527.657V68.3477H525.192ZM527.657 61.614H530.522C532.386 61.614 533.548 60.5719 533.548 59.1089V59.0688C533.548 57.4055 532.366 56.5638 530.522 56.5638H527.657V61.614ZM541.604 68.3477V56.6038H537.135V54.3192H548.538V56.6038H544.069V68.3477H541.604ZM547.71 68.3477L553.882 54.219H556.167L562.34 68.3477H559.734L558.311 64.9608H551.678L550.235 68.3477H547.71ZM552.58 62.7764H557.41L554.985 57.165L552.58 62.7764Z" fill="white"/>
<line x1="406.041" y1="14.5723" x2="406.041" y2="68.7407" stroke="white" stroke-width="0.435666"/>
<path d="M0.00012207 12.3535H14.6572V68.4251H6.39129V20.2786H0.00012207V12.3535Z" fill="white"/>
<path d="M49.7651 12.3535L34.7671 36.4695L29.8246 34.1687C30.5632 33.771 31.387 33.4869 32.2959 33.3165C33.2049 33.1461 34.1138 33.0609 35.0228 33.0609C37.1248 32.9472 39.1699 33.1745 41.1583 33.7426C43.1467 34.3107 44.9362 35.2481 46.5269 36.5547C48.1176 37.8613 49.3676 39.594 50.2764 41.7526C51.2421 43.9114 51.7252 46.5816 51.7252 49.7629C51.7252 53.7399 50.8159 57.1769 48.9982 60.074C47.1801 62.9716 44.7656 65.2155 41.7548 66.8062C38.8007 68.34 35.5057 69.1069 31.8698 69.1069C29.1429 69.1069 26.416 68.5674 23.6892 67.488C21.0191 66.3517 18.8035 64.8748 17.0424 63.0566L21.2179 56.2394C22.2973 57.4894 23.7744 58.6253 25.6491 59.6478C27.5807 60.6708 29.569 61.1821 31.6142 61.1821C33.773 61.1821 35.7045 60.699 37.4088 59.7333C39.17 58.7676 40.5618 57.4039 41.5843 55.6431C42.6637 53.825 43.2036 51.723 43.2036 49.3372C43.2036 46.0421 42.2379 43.457 40.3061 41.5825C38.4314 39.7077 35.8465 38.7703 32.5516 38.7703C30.9041 38.7703 29.5122 38.9123 28.376 39.1963C27.2398 39.4236 26.2172 39.7077 25.3082 40.0485L25.0526 39.7077L37.5485 20.2786H20.2806V12.3535H49.7651Z" fill="white"/>
<path d="M41.6005 77.5631C41.5681 77.5955 41.52 77.5793 41.4556 77.515C41.2946 77.4502 41.1175 77.3054 40.9243 77.0801C40.731 76.8223 40.5378 76.5489 40.3446 76.2588C40.1836 75.9367 40.0548 75.6309 39.9581 75.3412C39.8615 75.0192 39.8132 74.7776 39.8132 74.6166C39.8132 74.5523 40.1353 74.3265 40.7794 73.9402C41.4556 73.5538 42.277 73.0869 43.2431 72.5395C44.2412 71.9922 45.3202 71.4124 46.4793 70.8003C47.6707 70.1562 48.7821 69.5607 49.8125 69.0133C50.8749 68.4655 51.7767 67.9986 52.5175 67.6123C53.2583 67.1935 53.709 66.952 53.87 66.8877C54.4821 66.5337 55.0938 66.1954 55.7055 65.8734C56.3177 65.5514 56.9456 65.2455 57.5896 64.9554C59.6186 63.925 61.6151 62.8945 63.5793 61.8641C65.5439 60.8336 67.5243 59.8028 69.5209 58.7723C72.9347 57.0011 76.348 55.2461 79.7614 53.5072C83.1752 51.7684 86.6048 50.0291 90.0505 48.2903C90.1472 48.2579 90.4369 48.1131 90.9199 47.8554C91.403 47.5976 91.9827 47.2918 92.6592 46.9378C93.3676 46.5834 94.1084 46.2132 94.8811 45.8268C95.6862 45.4081 96.427 45.0375 97.103 44.7155C97.7795 44.3615 98.343 44.0714 98.7937 43.846C99.2448 43.6207 99.4864 43.5078 99.5183 43.5078C99.615 43.5078 99.8084 43.6045 100.098 43.7979C100.388 43.9909 100.694 44.2166 101.016 44.4739C101.338 44.6997 101.644 44.925 101.934 45.1504C102.224 45.3438 102.417 45.4724 102.513 45.5367C102.578 45.6011 102.771 45.7621 103.093 46.0198C103.415 46.2775 103.721 46.5672 104.011 46.8892C104.333 47.1793 104.59 47.469 104.784 47.7587C105.009 48.0164 105.057 48.1936 104.929 48.2903C103.029 49.6104 101.177 50.9791 99.3735 52.3963C97.6023 53.7807 95.8472 55.2461 94.1084 56.792L90.727 59.9318C89.5675 61.059 88.3922 62.2019 87.2007 63.3614C86.0412 64.4886 84.8821 65.6319 83.7226 66.791L80.4379 70.5588C80.4055 70.5911 80.3412 70.5588 80.2445 70.4625C80.0835 70.3977 79.9067 70.2367 79.7133 69.9794C79.5203 69.7217 79.3431 69.4478 79.1821 69.1581C79.0211 68.8361 78.8762 68.5302 78.7472 68.2401C78.6505 67.9181 78.6185 67.6766 78.6505 67.5156C78.6505 67.4512 78.7957 67.2421 79.0854 66.8877C79.4074 66.5337 79.7938 66.1149 80.2445 65.6319C80.6956 65.1488 81.1786 64.6334 81.6937 64.086C82.2415 63.5062 82.7565 62.9589 83.2395 62.4434C83.755 61.9284 84.2057 61.4777 84.592 61.0909C84.9784 60.7046 85.2523 60.4469 85.4133 60.3182H85.3652L88.7947 56.8887C90.3406 55.3428 91.9022 53.7969 93.4805 52.251C95.0583 50.7056 96.6361 49.1759 98.2144 47.6624L63.7727 65.8734L41.6005 77.5631Z" fill="white"/>
<path d="M91.9831 64.8573C91.2747 65.8235 90.8721 66.5161 90.7754 66.9348C90.7111 67.3531 90.8236 67.6109 91.1137 67.7076C91.4357 67.7719 91.8864 67.7076 92.4662 67.5142C93.0459 67.3212 93.6576 67.0797 94.3017 66.7896C94.9458 66.4675 95.5575 66.1455 96.1373 65.8235C96.717 65.5014 97.1515 65.2599 97.4416 65.0989C97.7636 64.8735 97.9566 64.8092 98.0213 64.9059C98.0857 64.9702 98.2629 65.1151 98.5525 65.3404C98.5845 65.3728 98.5525 65.4695 98.4559 65.6305L98.0213 65.9202C97.5383 66.3065 97.039 66.6771 96.5236 67.0311C96.0086 67.3855 95.477 67.7237 94.9296 68.0458C94.6076 68.2388 94.1888 68.4641 93.6738 68.7218C93.1907 68.9795 92.6753 69.1887 92.1279 69.3497C91.5805 69.4788 91.0489 69.5269 90.5339 69.495C90.0185 69.4302 89.6159 69.1729 89.3263 68.7218L88.1668 67.0311C87.8771 66.6128 87.7804 66.1455 87.8771 65.6305C88.0057 65.0831 88.2153 64.5515 88.505 64.0365C88.7947 63.521 89.1329 63.038 89.5192 62.5873C89.906 62.1362 90.2438 61.7822 90.5339 61.5245C90.9527 61.1057 91.3872 60.7194 91.8383 60.365C92.289 59.9786 92.7558 59.6566 93.2389 59.3988C93.5933 59.2378 93.9797 59.093 94.3984 58.9643C94.8491 58.8033 95.2516 58.7871 95.6061 58.9158L98.0213 61.5726C98.0857 61.6374 98.1019 61.7336 98.0695 61.8627C98.0371 61.9594 97.9728 62.0719 97.8761 62.2005C97.7798 62.3296 97.6669 62.442 97.5383 62.5387C97.4416 62.6354 97.3773 62.6998 97.3449 62.7321C96.8618 63.3119 96.2016 63.7788 95.3645 64.1327C94.5594 64.4548 93.7863 64.6482 93.0459 64.7125L91.9831 64.8573ZM96.1373 61.7179C96.1049 61.6212 96.0086 61.5407 95.8476 61.4763C95.5899 61.3796 95.2998 61.4116 94.9777 61.5726C94.6881 61.7017 94.3822 61.8947 94.0602 62.1524C93.7701 62.4101 93.4966 62.6836 93.2389 62.9737C92.9812 63.2633 92.7882 63.5049 92.6591 63.6982C93.2713 63.5692 93.9311 63.3438 94.6399 63.0218C95.3483 62.6998 95.8476 62.2652 96.1373 61.7179Z" fill="white"/>
<path d="M104.961 61.2335L108.101 59.3013C108.326 59.1079 108.616 59.1079 108.97 59.3013H109.067C109.325 59.4299 109.582 59.6233 109.84 59.8806C109.904 59.9454 110.001 60.0417 110.13 60.1707C110.258 60.2994 110.387 60.4442 110.516 60.6052C110.645 60.7662 110.741 60.9273 110.806 61.0883C110.902 61.2173 110.935 61.3298 110.902 61.4265L114.429 59.3013C114.654 59.1079 114.944 59.1079 115.298 59.3013H115.395C115.653 59.4299 115.91 59.6233 116.168 59.8806C116.329 60.0097 116.554 60.2512 116.844 60.6052C117.166 60.9596 117.295 61.2493 117.23 61.4751C117.166 61.6361 117.053 61.7647 116.892 61.8614C116.764 61.9581 116.635 62.0706 116.506 62.1992C116.248 62.425 116.007 62.6503 115.781 62.8757C115.588 63.101 115.379 63.3426 115.153 63.6003L112.786 66.3538L111.675 67.6577C112.062 67.5934 112.496 67.4648 112.98 67.2714C113.495 67.046 114.01 66.8207 114.525 66.5953C115.073 66.3376 115.588 66.0799 116.071 65.8222C116.554 65.5325 116.957 65.291 117.279 65.0976C117.665 64.8723 117.891 64.7917 117.955 64.8561C118.019 64.9208 118.197 65.0818 118.486 65.3391C118.486 65.3715 118.454 65.4682 118.39 65.6292L117.955 65.9189C117.536 66.2409 116.989 66.6435 116.313 67.1265C115.636 67.5772 114.928 68.0121 114.187 68.4309C113.446 68.8172 112.706 69.1231 111.965 69.3484C111.225 69.5742 110.58 69.59 110.033 69.397C109.84 69.397 109.614 69.2198 109.357 68.8654C109.099 68.5114 108.922 68.2537 108.825 68.0927C108.729 67.8993 108.6 67.6577 108.439 67.3681C108.31 67.046 108.262 66.7725 108.294 66.5468C108.294 66.4181 108.423 66.1928 108.681 65.8707C108.938 65.5487 109.228 65.1943 109.55 64.8079C109.872 64.4216 110.194 64.0672 110.516 63.7451C110.87 63.3911 111.128 63.1172 111.289 62.9238C110.001 63.6003 108.906 64.2925 108.004 65.0013C107.135 65.6774 106.233 66.5792 105.299 67.7063L103.753 69.397C103.528 69.397 103.286 69.2198 103.029 68.8654C102.771 68.5114 102.594 68.2537 102.497 68.0927C102.401 67.8993 102.272 67.6577 102.111 67.3681C101.982 67.046 101.934 66.7725 101.966 66.5468C101.998 66.4181 102.143 66.1928 102.401 65.8707C102.658 65.5163 102.948 65.1623 103.27 64.8079C103.592 64.4216 103.914 64.051 104.236 63.697C104.558 63.3426 104.8 63.0848 104.961 62.9238C103.254 63.7289 101.805 64.8723 100.613 66.3538L97.9565 69.3484C97.8599 69.4451 97.7474 69.4451 97.6183 69.3484C97.4897 69.2198 97.3448 69.075 97.1838 68.9139C97.0552 68.7529 96.9423 68.5919 96.8456 68.4309C96.7489 68.2375 96.6846 68.125 96.6526 68.0927C96.5559 67.8993 96.4269 67.6577 96.2658 67.3681C96.1372 67.046 96.0891 66.7725 96.121 66.5468C96.121 66.4181 96.2658 66.1604 96.5559 65.774C96.878 65.3877 97.2158 64.9851 97.5702 64.5664C97.9246 64.1477 98.2786 63.7613 98.633 63.4069C98.987 63.0529 99.2128 62.8114 99.309 62.6823C99.4057 62.586 99.6311 62.3603 99.9855 62.0063C100.34 61.6199 100.726 61.2335 101.145 60.8468C101.563 60.4284 101.934 60.0578 102.256 59.7358C102.61 59.4138 102.835 59.2527 102.932 59.2527C103.093 59.2527 103.303 59.3818 103.56 59.6391C103.85 59.8649 104.043 60.0259 104.14 60.1222C104.269 60.2832 104.414 60.4604 104.575 60.6538C104.768 60.8468 104.897 61.0401 104.961 61.2335Z" fill="white"/>
<path d="M56.1927 51.6387C59.3558 54.3183 63.4461 55.9377 67.916 55.9377C68.5377 55.9377 69.1515 55.9045 69.757 55.8435L57.6045 62.11C56.2861 61.5501 55.0212 60.8894 53.8226 60.1321C55.1693 57.5391 55.9997 54.6694 56.1927 51.6387Z" fill="white"/>
<path d="M67.9161 11.3711C82.5058 11.3711 94.3325 23.1981 94.3325 37.7875C94.3325 39.7471 94.1167 41.6563 93.7121 43.4939L81.5472 49.7649C84.3584 46.5682 86.0674 42.3788 86.0674 37.7875C86.067 27.7636 77.94 19.638 67.9161 19.638C58.8106 19.6382 51.2709 26.3433 49.9661 35.0856C47.9164 32.9762 45.4459 31.2311 42.6787 29.9664C46.0128 19.1958 56.05 11.3712 67.9161 11.3711Z" fill="white"/>
<path d="M178.959 0C197.493 0 206.76 5.50127e-05 212.517 5.75771C218.275 11.5154 218.275 20.7823 218.275 39.316V43.6841C218.275 62.2176 218.275 71.4846 212.517 77.2423C206.76 83 197.493 83 178.959 83H174.591C156.058 83 146.791 83 141.033 77.2423C135.275 71.4846 135.275 62.2176 135.275 43.6841V39.316C135.275 20.7823 135.275 11.5154 141.033 5.75771C146.791 5.50127e-05 156.058 0 174.591 0H178.959ZM169.072 48.5567C168.869 48.4048 168.565 48.4554 168.464 48.6579L157.928 63.9955C157.725 64.2993 157.928 64.7043 158.282 64.7043H161.524C161.676 64.7043 161.828 64.6537 161.878 64.5018L171.401 50.6321C171.503 50.4296 171.452 50.227 171.3 50.0751L169.072 48.5567ZM180.924 43.7983C180.721 43.6468 180.418 43.6974 180.316 43.8995L166.539 63.9955C166.336 64.2993 166.539 64.7043 166.893 64.7043H170.135C170.287 64.7043 170.439 64.6537 170.49 64.5018L181.279 48.8098C181.431 48.6073 181.633 48.5567 181.836 48.7086L198.855 60.4016C199.159 60.6041 199.564 60.4016 199.564 60.0472V56.8077C199.564 56.6558 199.514 56.5039 199.362 56.4533L180.924 43.7983ZM154.331 25.4743C154.027 25.2719 153.622 25.4742 153.622 25.8285V29.0682C153.622 29.22 153.673 29.3718 153.824 29.4225L166.488 38.129C166.691 38.2808 166.741 38.534 166.589 38.7364L153.673 57.5165C153.622 57.5671 153.571 57.668 153.571 57.7692V62.6289C153.571 63.0846 154.129 63.236 154.382 62.8816L171.503 37.8254C171.705 37.6229 171.654 37.3698 171.503 37.2685L154.331 25.4743ZM193.79 43.9502C193.588 43.7983 193.283 43.8493 193.182 44.0514L191.662 46.2285C191.511 46.4306 191.561 46.734 191.764 46.8352L198.855 51.7455C199.159 51.948 199.564 51.7459 199.564 51.3915V48.2529C199.564 48.1014 199.514 47.9491 199.413 47.8985L193.79 43.9502ZM164.715 18.7419C164.259 18.7419 164.107 19.2985 164.512 19.5516L198.906 43.1911C199.21 43.3936 199.615 43.1907 199.615 42.8367V39.5972C199.615 39.4454 199.514 39.3439 199.413 39.2426L169.679 18.8432C169.628 18.7926 169.527 18.7419 169.426 18.7419H164.715ZM154.078 18.7419C153.825 18.7419 153.622 18.9444 153.622 19.1974V20.8679C153.622 21.0197 153.723 21.1714 153.824 21.2221L164.664 28.2585C164.867 28.4103 165.12 28.3596 165.272 28.1572L166.792 25.9298C166.944 25.7274 166.893 25.5247 166.691 25.3223L156.661 18.7925C156.611 18.7419 156.509 18.7419 156.408 18.7419H154.078Z" fill="white"/>
<path d="M237.558 28.4374V14.3711H243.104C246.4 14.3711 248.449 16.2399 248.449 19.0733V19.1135C248.449 22.2483 245.937 23.9161 242.823 23.9161H240.03V28.4374H237.558ZM240.03 21.6856H242.903C244.772 21.6856 245.937 20.6407 245.937 19.1737V19.1336C245.937 17.4657 244.752 16.6217 242.903 16.6217H240.03V21.6856Z" fill="white"/>
<path d="M257.291 28.6775C252.97 28.6775 249.956 25.402 249.956 21.4434V21.4032C249.956 17.4646 253.01 14.1289 257.331 14.1289C261.651 14.1289 264.665 17.4043 264.665 21.363V21.4032C264.665 25.3417 261.611 28.6775 257.291 28.6775ZM257.331 26.3867C260.124 26.3867 262.073 24.1763 262.073 21.4434V21.4032C262.073 18.6703 260.104 16.4197 257.291 16.4197C254.497 16.4197 252.548 18.6301 252.548 21.363V21.4032C252.548 24.1361 254.518 26.3867 257.331 26.3867Z" fill="white"/>
<path d="M273.78 28.6775C269.681 28.6775 266.627 25.4824 266.627 21.4434V21.4032C266.627 17.4043 269.621 14.1289 273.861 14.1289C276.473 14.1289 278.04 15.0331 279.387 16.3192L277.799 18.1478C276.654 17.1029 275.468 16.4197 273.841 16.4197C271.188 16.4197 269.219 18.61 269.219 21.363V21.4032C269.219 24.1562 271.168 26.3867 273.861 26.3867C275.569 26.3867 276.694 25.7035 277.9 24.5781L279.487 26.1857C278.06 27.733 276.392 28.6775 273.78 28.6775Z" fill="white"/>
<path d="M287.841 28.6775C283.742 28.6775 280.687 25.4824 280.687 21.4434V21.4032C280.687 17.4043 283.681 14.1289 287.922 14.1289C290.534 14.1289 292.101 15.0331 293.448 16.3192L291.86 18.1478C290.714 17.1029 289.529 16.4197 287.901 16.4197C285.249 16.4197 283.28 18.61 283.28 21.363V21.4032C283.28 24.1562 285.229 26.3867 287.922 26.3867C289.63 26.3867 290.755 25.7035 291.96 24.5781L293.548 26.1857C292.121 27.733 290.453 28.6775 287.841 28.6775Z" fill="white"/>
<path d="M308.021 28.4374H305.55V18.2695L297.914 28.4374H295.764V14.3711H298.235V24.2778L305.651 14.3711H308.021V28.4374Z" fill="white"/>
<path d="M317.366 13.2435C315.437 13.2435 314.051 12.299 313.89 10.5508H315.618C315.859 11.1737 316.342 11.5555 317.366 11.5555C318.391 11.5555 318.874 11.1737 319.115 10.5508H320.843C320.682 12.299 319.295 13.2435 317.366 13.2435ZM323.495 28.4351H321.024V18.2672L313.388 28.4351H311.238V14.3688H313.709V24.2755L321.124 14.3688H323.495V28.4351Z" fill="white"/>
<path d="M333.242 28.6775C329.143 28.6775 326.088 25.4824 326.088 21.4434V21.4032C326.088 17.4043 329.082 14.1289 333.322 14.1289C335.935 14.1289 337.502 15.0331 338.848 16.3192L337.261 18.1478C336.115 17.1029 334.93 16.4197 333.302 16.4197C330.65 16.4197 328.68 18.61 328.68 21.363V21.4032C328.68 24.1562 330.63 26.3867 333.322 26.3867C335.03 26.3867 336.156 25.7035 337.361 24.5781L338.949 26.1857C337.522 27.733 335.854 28.6775 333.242 28.6775Z" fill="white"/>
<path d="M341.164 28.4374V14.3711H343.636L343.616 20.2187H345.163L350.448 14.3711H353.563L347.152 21.1631L353.905 28.4374H350.729L345.224 22.409H343.616L343.636 28.4374H341.164Z" fill="white"/>
<path d="M367.758 28.4374H365.287V18.2695L357.651 28.4374H355.5V14.3711H357.972V24.2778L365.387 14.3711H367.758V28.4374Z" fill="white"/>
<path d="M377.103 13.2435C375.174 13.2435 373.787 12.299 373.626 10.5508H375.354C375.596 11.1737 376.078 11.5555 377.103 11.5555C378.127 11.5555 378.61 11.1737 378.851 10.5508H380.579C380.418 12.299 379.032 13.2435 377.103 13.2435ZM383.232 28.4351H380.76V18.2672L373.124 28.4351H370.974V14.3688H373.445V24.2755L380.861 14.3688H383.232V28.4351Z" fill="white"/>
<path d="M241.838 48.6875H239.085L241.899 43.8445L236.272 34.6211H239.085L243.265 41.6342L247.083 34.6211H249.836L241.838 48.6875Z" fill="white"/>
<path d="M251.58 48.6875V34.6211H254.052V40.4687H260.763V34.6211H263.235V48.6875H260.763V42.7597H254.052V48.6875H251.58Z" fill="white"/>
<path d="M278.703 48.6875H276.231V38.5195L268.595 48.6875H266.445V34.6211H268.917V44.528L276.332 34.6211H278.703V48.6875Z" fill="white"/>
<path d="M281.919 48.6875V34.6211H288.228C289.856 34.6211 291.082 35.0431 291.906 35.867C292.529 36.4899 292.85 37.2736 292.85 38.198V38.2381C292.85 39.9462 291.886 40.8304 290.841 41.3729C292.509 41.9558 293.634 42.8601 293.634 44.789V44.8293C293.634 47.3413 291.564 48.6875 288.43 48.6875H281.919ZM290.378 38.64V38.5999C290.378 37.4745 289.514 36.8114 287.907 36.8114H284.35V40.549H287.726C289.334 40.549 290.378 39.9261 290.378 38.64ZM291.162 44.5678V44.528C291.162 43.322 290.218 42.6389 288.269 42.6389H284.35V46.4971H288.45C290.137 46.4971 291.162 45.8539 291.162 44.5678Z" fill="white"/>
<path d="M296.019 48.6875V34.6211H306.448V36.8315H298.49V40.4888H305.544V42.7194H298.49V46.4768H306.548V48.6875H296.019Z" fill="white"/>
<path d="M309.079 48.6875V34.6211H314.625C317.92 34.6211 319.97 36.4899 319.97 39.3233V39.3635C319.97 42.4982 317.458 44.1661 314.343 44.1661H311.55V48.6875H309.079ZM311.55 41.9355H314.424C316.293 41.9355 317.458 40.8907 317.458 39.4238V39.3836C317.458 37.7157 316.273 36.8717 314.424 36.8717H311.55V41.9355Z" fill="white"/>
<path d="M328.63 48.9295C324.531 48.9295 321.476 45.7344 321.476 41.6952V41.655C321.476 37.6563 324.471 34.3809 328.711 34.3809C331.323 34.3809 332.891 35.2851 334.237 36.5712L332.649 38.3998C331.504 37.3549 330.318 36.6717 328.691 36.6717C326.038 36.6717 324.069 38.862 324.069 41.6151V41.655C324.069 44.4081 326.018 46.6387 328.711 46.6387C330.419 46.6387 331.544 45.9556 332.75 44.8301L334.337 46.4379C332.911 47.985 331.243 48.9295 328.63 48.9295Z" fill="white"/>
<path d="M348.811 48.6875H346.339V38.5195L338.703 48.6875H336.553V34.6211H339.024V44.528L346.44 34.6211H348.811V48.6875Z" fill="white"/>
<path d="M355.463 48.6875V36.9119H350.982V34.6211H362.415V36.9119H357.935V48.6875H355.463Z" fill="white"/>
<path d="M364.576 48.6875V34.6211H375.006V36.8315H367.048V40.4888H374.101V42.7194H367.048V46.4768H375.106V48.6875H364.576Z" fill="white"/>
<path d="M381.053 48.6875V36.9119H376.572V34.6211H388.006V36.9119H383.525V48.6875H381.053Z" fill="white"/>
<path d="M240.994 68.9414V57.1658H236.513V54.875H247.947V57.1658H243.466V68.9414H240.994Z" fill="white"/>
<path d="M250.108 68.9414V54.875H255.654C258.95 54.875 260.999 56.7437 260.999 59.5774V59.6172C260.999 62.7521 258.487 64.42 255.373 64.42H252.579V68.9414H250.108ZM252.579 62.1894H255.453C257.322 62.1894 258.487 61.1444 258.487 59.6778V59.6375C258.487 57.9697 257.302 57.1255 255.453 57.1255H252.579V62.1894Z" fill="white"/>
<path d="M260.51 68.9403L266.699 54.7734H268.99L275.179 68.9403H272.567L271.14 65.5443H264.489L263.042 68.9403H260.51ZM265.393 63.354H270.236L267.804 57.7274L265.393 63.354Z" fill="white"/>
<path d="M277.189 68.9414V54.875H279.661V60.7228H286.373V54.875H288.844V68.9414H286.373V63.0136H279.661V68.9414H277.189Z" fill="white"/>
<path d="M298.586 69.1815C294.486 69.1815 291.432 65.9864 291.432 61.9472V61.9069C291.432 57.9084 294.426 54.6328 298.666 54.6328C301.279 54.6328 302.846 55.5371 304.192 56.8232L302.605 58.6517C301.459 57.6067 300.274 56.9236 298.646 56.9236C295.994 56.9236 294.024 59.114 294.024 61.8671V61.9069C294.024 64.66 295.974 66.8907 298.666 66.8907C300.374 66.8907 301.499 66.2076 302.705 65.0821L304.293 66.6898C302.866 68.2369 301.198 69.1815 298.586 69.1815Z" fill="white"/>
<path d="M306.508 68.9414V54.875H318.103V68.9414H315.611V57.1255H308.98V68.9414H306.508Z" fill="white"/>
<path d="M328.006 69.1815C323.686 69.1815 320.672 65.9059 320.672 61.9472V61.9069C320.672 57.9686 323.727 54.6328 328.047 54.6328C332.367 54.6328 335.381 57.9084 335.381 61.8671V61.9069C335.381 65.8457 332.327 69.1815 328.006 69.1815ZM328.047 66.8907C330.84 66.8907 332.789 64.6804 332.789 61.9472V61.9069C332.789 59.1742 330.82 56.9236 328.006 56.9236C325.213 56.9236 323.264 59.1339 323.264 61.8671V61.9069C323.264 64.6401 325.233 66.8907 328.047 66.8907Z" fill="white"/>
<path d="M337.966 68.9414V54.875H343.512C346.808 54.875 348.857 56.7437 348.857 59.5774V59.6172C348.857 62.7521 346.345 64.42 343.231 64.42H340.437V68.9414H337.966ZM340.437 62.1894H343.311C345.18 62.1894 346.345 61.1444 346.345 59.6778V59.6375C346.345 57.9697 345.16 57.1255 343.311 57.1255H340.437V62.1894Z" fill="white"/>
<path d="M354.423 68.9414V57.1658H349.942V54.875H361.375V57.1658H356.894V68.9414H354.423Z" fill="white"/>
<path d="M360.545 68.9403L366.734 54.7734H369.025L375.214 68.9403H372.602L371.175 65.5443H364.524L363.077 68.9403H360.545ZM365.428 63.354H370.271L367.839 57.7274L365.428 63.354Z" fill="white"/>
</svg>
