<svg width="77" height="77" viewBox="0 0 77 77" fill="none" xmlns="http://www.w3.org/2000/svg">
<mask id="mask0_7065_443" style="mask-type:luminance" maskUnits="userSpaceOnUse" x="0" y="0" width="77" height="77">
<path d="M48.6604 0L48.5223 0L41.2125 0L28.0426 0C4.94734 0 0 4.95501 0 28.0426L0 48.6604C0 71.7556 4.95501 76.703 28.0426 76.703H41.2125H48.5223H48.6604C71.7556 76.703 76.703 71.7479 76.703 48.6604V28.0426C76.703 4.94734 71.7479 0 48.6604 0Z" fill="white"/>
</mask>
<g mask="url(#mask0_7065_443)">
<rect width="76.7029" height="76.7029" fill="white"/>
</g>
<path fill-rule="evenodd" clip-rule="evenodd" d="M39.0314 28.1812C33.4664 27.8893 29.1237 31.7508 28.1661 37.7947C27.373 42.7998 28.7791 48.8986 29.9817 49.2056C30.4919 49.3358 31.7194 48.3969 32.6125 47.5547C32.7804 47.3964 33.0342 47.3697 33.2311 47.4901C34.6233 48.3414 36.1995 48.9812 37.9372 49.0723C43.6503 49.3719 48.7132 44.9005 49.0125 39.187C49.3117 33.4734 44.7445 28.4808 39.0314 28.1812ZM29.7125 57.197C29.497 57.0444 29.2001 57.0858 29.0196 57.2784C26.606 59.8526 20.4291 61.6584 20.1462 58.1449C20.1462 55.3921 19.5279 53.0724 18.8471 50.5184C18.0134 47.3903 17.0859 43.9108 17.0859 38.8536C17.0859 26.7943 26.9761 17.7251 38.7025 17.7251C50.4289 17.7251 59.6229 27.2371 59.6229 38.9707C59.6229 50.7044 50.1363 59.9821 38.8135 59.9821C34.7964 59.9821 32.8471 59.4163 29.7125 57.197Z" fill="#024492"/>
</svg>
