<svg width="77" height="77" viewBox="0 0 77 77" fill="none" xmlns="http://www.w3.org/2000/svg">
<path d="M0 36.7072C0 19.4029 0 10.7525 5.37448 5.37448C10.7525 0 19.4029 0 36.7072 0H39.7661C57.0705 0 65.7208 0 71.0989 5.37448C76.4734 10.749 76.4734 19.4029 76.4734 36.7072V39.7661C76.4734 57.0705 76.4734 65.7208 71.0989 71.0989C65.7244 76.4734 57.0705 76.4734 39.7661 76.4734H36.7072C19.4029 76.4734 10.7525 76.4734 5.37448 71.0989C0 65.7208 0 57.0705 0 39.7661V36.7072Z" fill="white"/>
<path d="M39.8369 53.6919C23.5285 53.6919 14.2236 42.509 13.8359 23.9028H22.0061C22.2729 37.5578 28.2983 43.3449 33.0681 44.5364V23.9028H40.7617V35.6797C45.4746 35.1711 50.4222 29.8073 52.0904 23.9028H59.784C58.5035 31.1767 53.1361 36.5441 49.3196 38.7529C53.1361 40.542 59.2504 45.2229 61.5731 53.6919H53.1041C51.2865 48.0257 46.7551 43.6436 40.7617 43.0461V53.6919H39.8369Z" fill="#024492"/>
</svg>
