<svg width="242" height="243" viewBox="0 0 242 243" fill="none" xmlns="http://www.w3.org/2000/svg">
<path d="M176.54 0H65.1153C29.1531 0 0 29.2494 0 65.3304V177.123C0 213.204 29.1531 242.453 65.1153 242.453H176.54C212.502 242.453 241.655 213.204 241.655 177.123V65.3304C241.655 29.2494 212.502 0 176.54 0Z" fill="#024492"/>
<path d="M87.5659 58.6094H100.73C100.73 58.6094 101.2 58.6094 101.435 58.8452L184.534 116.157C184.534 116.157 185.121 116.746 185.121 117.218V126.298C185.121 127.36 183.946 127.949 183.123 127.36L86.8607 60.9679C85.8029 60.2603 86.3905 58.6094 87.5659 58.6094Z" fill="white"/>
<path d="M93.0894 77.1236L64.9981 58.8452C64.9981 58.8452 64.528 58.6094 64.2929 58.6094H57.7109C57.0056 58.6094 56.418 59.199 56.418 59.9065V64.6235C56.418 64.6235 56.653 65.449 57.0056 65.6849L87.3301 85.3783C87.3301 85.3783 88.623 85.6142 89.0932 85.0245L93.3245 78.7745C93.3245 78.7745 93.5596 77.5953 92.9719 77.1236H93.0894Z" fill="white"/>
<path d="M184.533 140.45L168.9 129.365C168.9 129.365 167.49 129.129 167.137 129.719L162.906 135.851C162.906 135.851 162.671 137.266 163.258 137.62L183.122 151.417C183.945 152.007 185.12 151.417 185.12 150.356V141.511C185.12 141.511 184.885 140.686 184.533 140.45Z" fill="white"/>
<path d="M105.903 146.581L99.6731 142.336C99.6731 142.336 98.2626 142.1 97.91 142.689L68.5258 185.732C67.9382 186.557 68.5258 187.737 69.5837 187.737H78.634C78.634 187.737 79.4568 187.501 79.6918 187.147L106.373 148.232C106.725 147.642 106.608 147.171 106.02 146.699L105.903 146.581Z" fill="white"/>
<path d="M106.488 110.615L58.5333 77.4778C57.7105 76.8882 56.5352 77.4778 56.5352 78.5391V87.6193C56.5352 87.6193 56.7702 88.4448 57.1228 88.6806L92.5014 113.091C92.5014 113.091 93.2066 114.27 92.854 114.86L56.7702 167.572C56.7702 167.572 56.5352 168.044 56.5352 168.28V181.841C56.5352 183.138 58.1807 183.61 58.8859 182.549L106.841 112.148C106.841 112.148 106.958 110.968 106.488 110.615Z" fill="white"/>
<path d="M135.52 142.689L183.122 175.591C183.945 176.18 185.121 175.591 185.121 174.529V165.449C185.121 165.449 184.886 164.624 184.533 164.388L133.052 128.892C133.052 128.892 131.641 128.656 131.289 129.246L92.7368 185.614C92.1491 186.44 92.7368 187.619 93.7946 187.619H102.845C102.845 187.619 103.668 187.383 103.903 187.029L134.11 143.043C134.11 143.043 135.05 142.454 135.638 142.807L135.52 142.689Z" fill="white"/>
</svg>
