<svg xmlns="http://www.w3.org/2000/svg" version="1.1" xmlns:xlink="http://www.w3.org/1999/xlink" width="1000" height="1000"><metadata><rdf:RDF xmlns:rdf="http://www.w3.org/1999/02/22-rdf-syntax-ns#" xmlns:dc="http://purl.org/dc/elements/1.1/"><rdf:Description><dc:creator>RealFaviconGenerator</dc:creator><dc:source>https://realfavicongenerator.net</dc:source></rdf:Description></rdf:RDF></metadata><g clip-path="url(#SvgjsClipPath1348)"><rect width="1000" height="1000" fill="#ffffff"></rect><g transform="matrix(4.7368421052631575,0,0,4.7368421052631575,50.00000000000006,50.00000000000006)"><svg xmlns="http://www.w3.org/2000/svg" width="190" height="190" viewBox="0 0 190 190" fill="none"><rect width="190" height="190" rx="45" fill="#024492"></rect><path d="M67.3925 42.9033H78.1761C78.408 42.9033 78.6399 43.0192 78.7559 43.1351L146.82 89.833C147.052 90.0647 147.284 90.2965 147.284 90.6441V98.0601C147.284 98.8712 146.357 99.3347 145.661 98.8712L66.9286 44.7573C66.001 44.1779 66.3489 42.9033 67.3925 42.9033ZM71.9146 57.9672L48.9559 43.0192C48.84 42.9033 48.6081 42.9033 48.3762 42.9033H43.0423C42.4626 42.9033 41.9987 43.3669 41.9987 43.9462V47.7701C41.9987 48.1177 42.2307 48.4654 42.4626 48.5813L67.2765 64.6879C67.7403 65.0355 68.3201 64.9197 68.6679 64.4562L72.1465 59.3577C72.4944 58.8942 72.3784 58.4307 71.9146 57.9672ZM146.82 109.648L133.95 100.609C133.486 100.262 132.79 100.378 132.558 100.841L129.079 105.824C128.732 106.287 128.848 106.983 129.311 107.214L145.545 118.454C146.241 118.918 147.168 118.454 147.168 117.643V110.459C147.168 110.111 147.052 109.764 146.82 109.648ZM82.4664 114.63L77.3644 111.154C76.9006 110.806 76.2049 110.922 75.973 111.386L51.8547 146.496C51.3909 147.191 51.8548 148.118 52.6664 148.118H60.0874C60.4352 148.118 60.7831 148.003 60.8991 147.655L82.6982 115.905C82.9301 115.441 82.8142 114.978 82.4664 114.63ZM82.9302 85.3138L43.6221 58.3148C42.9264 57.8513 41.9987 58.3148 41.9987 59.1259V66.542C41.9987 66.8896 42.1147 67.2372 42.4626 67.353L71.4508 87.2837C71.9147 87.6313 72.0306 88.2107 71.6827 88.6742L42.1147 131.664C41.9987 131.78 41.8828 132.012 41.8828 132.243V140.007V143.368C41.8828 144.41 43.1583 144.758 43.738 143.947L82.9302 86.5884C83.394 86.1249 83.278 85.5455 82.9302 85.3138ZM106.585 111.502L145.545 138.269C146.241 138.732 147.168 138.269 147.168 137.458V130.042C147.168 129.694 147.052 129.347 146.704 129.231L104.497 100.262C104.034 99.9141 103.338 100.03 103.106 100.494L71.5668 146.496C71.103 147.191 71.5668 148.118 72.3785 148.118H79.7994C80.1473 148.118 80.4951 148.003 80.6111 147.655L105.309 111.733C105.657 111.27 106.121 111.154 106.585 111.502Z" fill="white"></path></svg></g></g><defs><clipPath id="SvgjsClipPath1348"><rect width="1000" height="1000" x="0" y="0" rx="250" ry="250"></rect></clipPath></defs></svg>