<svg width="1630" height="981" viewBox="0 0 1630 981" fill="none" xmlns="http://www.w3.org/2000/svg">
<rect x="5" y="5" width="1620" height="970" rx="65" stroke="#024492" stroke-width="10"/>
<rect x="651.5" y="900" width="327.994" height="80.041" rx="24.0676" fill="#024492"/>
<path d="M719.693 957.02H713.795V932.756L695.574 957.02H690.443V923.454H696.341V947.094L714.035 923.454H719.693V957.02ZM734.128 957.02V928.92H723.435V923.454H750.719V928.92H740.026V957.02H734.128ZM762.636 957.02V928.92H751.943V923.454H779.227V928.92H768.534V957.02H762.636ZM796.796 957.595C787.014 957.595 779.726 949.971 779.726 940.333V940.237C779.726 930.695 786.87 922.879 796.988 922.879C803.222 922.879 806.962 925.036 810.174 928.105L806.386 932.469C803.653 929.975 800.824 928.345 796.94 928.345C790.611 928.345 785.911 933.572 785.911 940.141V940.237C785.911 946.806 790.563 952.129 796.988 952.129C801.064 952.129 803.749 950.498 806.626 947.813L810.414 951.649C807.01 955.341 803.03 957.595 796.796 957.595ZM823.586 957.02H817.017L823.73 945.463L810.304 923.454H817.017L826.991 940.189L836.102 923.454H842.671L823.586 957.02ZM857.372 957.02V923.454H870.606C878.47 923.454 883.361 927.913 883.361 934.674V934.77C883.361 942.251 877.367 946.231 869.935 946.231H863.27V957.02H857.372ZM863.27 940.908H870.127C874.586 940.908 877.367 938.415 877.367 934.914V934.818C877.367 930.838 874.538 928.824 870.127 928.824H863.27V940.908ZM896.515 957.02H889.946L896.659 945.463L883.232 923.454H889.946L899.919 940.189L909.03 923.454H915.599L896.515 957.02ZM926.474 957.02V928.92H915.781V923.454H943.065V928.92H932.372V957.02H926.474Z" fill="white"/>
<rect x="246.5" y="900" width="1137.99" height="80.041" rx="24.0676" fill="#024492"/>
<path d="M314.953 957.02H309.055V932.756L290.834 957.02H285.703V923.454H291.601V947.094L309.295 923.454H314.953V957.02ZM320.469 957.02V931.701H326.319V941.627H338.019V931.701H343.821V957.02H338.019V946.95H326.319V957.02H320.469ZM360.351 957.595C352.823 957.595 347.26 951.697 347.26 944.504V944.408C347.26 937.216 352.823 931.174 360.447 931.174C365.194 931.174 368.119 932.948 370.565 935.538L366.92 939.422C365.146 937.551 363.276 936.257 360.399 936.257C356.179 936.257 353.062 939.901 353.062 944.313V944.408C353.062 948.916 356.179 952.512 360.639 952.512C363.372 952.512 365.338 951.265 367.208 949.395L370.708 952.848C368.215 955.677 365.29 957.595 360.351 957.595ZM379.898 957.02V936.88H370.883V931.701H394.715V936.88H385.7V957.02H379.898ZM397.519 957.02V931.701H403.321V947.909L415.404 931.701H420.919V957.02H415.116V940.429L402.793 957.02H397.519ZM432.7 957.02V936.88H423.685V931.701H447.517V936.88H438.502V957.02H432.7ZM460.833 950.498L467.45 931.701H473.492L463.422 957.691C461.361 962.917 459.155 964.836 455.079 964.836C452.634 964.836 450.859 964.26 449.085 963.253L451.051 958.986C452.154 959.561 453.257 959.945 454.456 959.945C456.134 959.945 457.093 959.225 458.052 957.067L447.503 931.701H453.736L460.833 950.498ZM482.505 957.02V936.88H473.49V931.701H497.322V936.88H488.307V957.02H482.505ZM532.723 931.701L532.675 941.723H535.504L543.512 931.701H550.321L539.868 944.073L550.705 957.02H543.848L535.552 946.71H532.675L532.723 957.02H527.065L527.113 946.71H524.14L515.892 957.02H509.035L519.872 944.313L509.467 931.701H516.324L524.332 941.723H527.113L527.065 931.701H532.723ZM562.894 957.595C555.606 957.595 549.9 952.272 549.9 944.456V944.361C549.9 937.072 555.03 931.174 562.271 931.174C570.327 931.174 574.402 937.504 574.402 944.792C574.402 945.32 574.354 945.847 574.306 946.422H555.702C556.325 950.594 559.202 952.848 562.99 952.848C565.867 952.848 567.785 951.793 569.847 949.827L573.252 952.848C570.806 955.725 567.545 957.595 562.894 957.595ZM555.654 942.586H568.648C568.265 938.894 566.059 935.921 562.223 935.921C558.627 935.921 556.181 938.606 555.654 942.586ZM590.944 931.51L601.924 957.02H595.595L588.162 938.654L580.634 957.02H574.496L585.477 931.51H590.944ZM614.572 957.595C607.284 957.595 601.578 952.272 601.578 944.456V944.361C601.578 937.072 606.708 931.174 613.949 931.174C622.005 931.174 626.081 937.504 626.081 944.792C626.081 945.32 626.033 945.847 625.985 946.422H607.38C608.003 950.594 610.88 952.848 614.668 952.848C617.545 952.848 619.463 951.793 621.525 949.827L624.93 952.848C622.484 955.725 619.224 957.595 614.572 957.595ZM607.332 942.586H620.327C619.943 938.894 617.737 935.921 613.901 935.921C610.305 935.921 607.859 938.606 607.332 942.586ZM626.936 953.951L629.861 950.019C632.355 951.793 635.328 952.848 638.396 952.848C642.041 952.848 644.055 951.553 644.055 949.491V949.443C644.055 947.573 642.185 946.374 638.732 946.422H633.218V942.155H638.684C641.801 942.155 643.383 941.004 643.383 939.038V938.99C643.383 937.12 641.609 935.873 638.396 935.921C635.376 935.921 632.834 936.928 630.293 938.798L627.224 935.106C630.293 932.661 633.841 931.174 638.684 931.174C645.062 931.174 649.09 934.099 649.09 938.319V938.367C649.09 941.436 647.171 943.114 644.63 944.121C647.555 944.888 649.761 946.758 649.761 950.019V950.067C649.761 954.142 645.685 957.595 638.396 957.595C633.649 957.595 630.053 956.252 626.936 953.951ZM653.194 957.02V931.701H659.044V941.627H670.744V931.701H676.546V957.02H670.744V946.95H659.044V957.02H653.194ZM693.411 957.595C685.691 957.595 679.985 951.697 679.985 944.504V944.408C679.985 937.168 685.739 931.174 693.507 931.174C701.323 931.174 706.981 937.072 706.981 944.313V944.408C706.981 951.553 701.227 957.595 693.411 957.595ZM693.507 952.512C698.254 952.512 701.179 948.868 701.179 944.504V944.408C701.179 939.949 697.966 936.257 693.411 936.257C688.76 936.257 685.787 939.901 685.787 944.313V944.408C685.787 948.82 689.048 952.512 693.507 952.512ZM724.902 931.51L733.917 951.793H736.794V963.349H731.52V956.972H712.195V963.349H706.921V951.793H709.798L718.813 931.51H724.902ZM721.834 937.408L715.648 951.985H727.923L721.834 937.408ZM750.147 957.595C742.427 957.595 736.72 951.697 736.72 944.504V944.408C736.72 937.168 742.474 931.174 750.243 931.174C758.059 931.174 763.717 937.072 763.717 944.313V944.408C763.717 951.553 757.963 957.595 750.147 957.595ZM750.243 952.512C754.99 952.512 757.915 948.868 757.915 944.504V944.408C757.915 939.949 754.702 936.257 750.147 936.257C745.495 936.257 742.522 939.901 742.522 944.313V944.408C742.522 948.82 745.783 952.512 750.243 952.512ZM767.18 964.692V931.701H773.03V935.921C774.9 933.284 777.489 931.174 781.661 931.174C787.607 931.174 793.409 935.873 793.409 944.313V944.408C793.409 952.848 787.655 957.547 781.661 957.547C777.441 957.547 774.804 955.437 773.03 953.088V964.692H767.18ZM780.271 952.512C784.251 952.512 787.511 949.395 787.511 944.408V944.313C787.511 939.422 784.155 936.209 780.271 936.209C776.291 936.209 772.886 939.47 772.886 944.313V944.408C772.886 949.251 776.291 952.512 780.271 952.512ZM809.036 957.595C801.316 957.595 795.61 951.697 795.61 944.504V944.408C795.61 937.168 801.364 931.174 809.132 931.174C816.948 931.174 822.606 937.072 822.606 944.313V944.408C822.606 951.553 816.852 957.595 809.036 957.595ZM809.132 952.512C813.879 952.512 816.804 948.868 816.804 944.504V944.408C816.804 939.949 813.592 936.257 809.036 936.257C804.385 936.257 801.412 939.901 801.412 944.313V944.408C801.412 948.82 804.673 952.512 809.132 952.512ZM845.471 931.701L845.423 941.723H848.252L856.26 931.701H863.069L852.616 944.073L863.453 957.02H856.596L848.3 946.71H845.423L845.471 957.02H839.813L839.861 946.71H836.888L828.64 957.02H821.783L832.62 944.313L822.215 931.701H829.072L837.08 941.723H839.861L839.813 931.701H845.471ZM865.208 957.02V931.701H871.058V941.627H882.758V931.701H888.56V957.02H882.758V946.95H871.058V957.02H865.208ZM905.425 957.595C897.705 957.595 891.999 951.697 891.999 944.504V944.408C891.999 937.168 897.753 931.174 905.521 931.174C913.337 931.174 918.995 937.072 918.995 944.313V944.408C918.995 951.553 913.241 957.595 905.425 957.595ZM905.521 952.512C910.268 952.512 913.193 948.868 913.193 944.504V944.408C913.193 939.949 909.98 936.257 905.425 936.257C900.774 936.257 897.801 939.901 897.801 944.313V944.408C897.801 948.82 901.061 952.512 905.521 952.512ZM922.458 957.02V931.701H941.447V936.928H928.308V957.02H922.458ZM954.855 957.595C947.135 957.595 941.429 951.697 941.429 944.504V944.408C941.429 937.168 947.183 931.174 954.951 931.174C962.767 931.174 968.425 937.072 968.425 944.313V944.408C968.425 951.553 962.671 957.595 954.855 957.595ZM954.951 952.512C959.698 952.512 962.623 948.868 962.623 944.504V944.408C962.623 939.949 959.411 936.257 954.855 936.257C950.204 936.257 947.231 939.901 947.231 944.313V944.408C947.231 948.82 950.492 952.512 954.951 952.512ZM990.868 957.02V936.88H981.853V931.701H1005.68V936.88H996.67V957.02H990.868ZM1008.49 964.692V931.701H1014.34V935.921C1016.21 933.284 1018.8 931.174 1022.97 931.174C1028.92 931.174 1034.72 935.873 1034.72 944.313V944.408C1034.72 952.848 1028.96 957.547 1022.97 957.547C1018.75 957.547 1016.11 955.437 1014.34 953.088V964.692H1008.49ZM1021.58 952.512C1025.56 952.512 1028.82 949.395 1028.82 944.408V944.313C1028.82 939.422 1025.46 936.209 1021.58 936.209C1017.6 936.209 1014.19 939.47 1014.19 944.313V944.408C1014.19 949.251 1017.6 952.512 1021.58 952.512ZM1045.6 957.547C1040.85 957.547 1036.58 954.862 1036.58 949.731V949.635C1036.58 944.121 1040.9 941.483 1047.08 941.483C1049.96 941.483 1051.93 941.915 1053.89 942.538V941.915C1053.89 938.271 1051.69 936.401 1047.61 936.401C1044.73 936.401 1042.67 937.024 1040.37 937.983L1038.79 933.428C1041.62 932.229 1044.35 931.366 1048.38 931.366C1052.17 931.366 1054.95 932.325 1056.77 934.195C1058.64 936.065 1059.5 938.702 1059.5 942.011V957.02H1053.85V953.855C1052.12 955.917 1049.48 957.547 1045.6 957.547ZM1047.23 953.327C1051.06 953.327 1053.99 951.17 1053.99 947.909V946.183C1052.5 945.607 1050.54 945.176 1048.24 945.176C1044.45 945.176 1042.29 946.71 1042.29 949.395V949.491C1042.29 951.937 1044.4 953.327 1047.23 953.327ZM1064.01 957.02V931.701H1069.86V941.627H1081.56V931.701H1087.36V957.02H1081.56V946.95H1069.86V957.02H1064.01ZM1103.89 957.595C1096.36 957.595 1090.8 951.697 1090.8 944.504V944.408C1090.8 937.216 1096.36 931.174 1103.98 931.174C1108.73 931.174 1111.66 932.948 1114.1 935.538L1110.46 939.422C1108.68 937.551 1106.81 936.257 1103.94 936.257C1099.72 936.257 1096.6 939.901 1096.6 944.313V944.408C1096.6 948.916 1099.72 952.512 1104.18 952.512C1106.91 952.512 1108.88 951.265 1110.75 949.395L1114.25 952.848C1111.75 955.677 1108.83 957.595 1103.89 957.595ZM1117.14 957.02V931.701H1140.44V957.02H1134.64V936.928H1122.99V957.02H1117.14ZM1157.35 957.595C1149.63 957.595 1143.93 951.697 1143.93 944.504V944.408C1143.93 937.168 1149.68 931.174 1157.45 931.174C1165.27 931.174 1170.92 937.072 1170.92 944.313V944.408C1170.92 951.553 1165.17 957.595 1157.35 957.595ZM1157.45 952.512C1162.2 952.512 1165.12 948.868 1165.12 944.504V944.408C1165.12 939.949 1161.91 936.257 1157.35 936.257C1152.7 936.257 1149.73 939.901 1149.73 944.313V944.408C1149.73 948.82 1152.99 952.512 1157.45 952.512ZM1174.39 964.692V931.701H1180.24V935.921C1182.11 933.284 1184.7 931.174 1188.87 931.174C1194.81 931.174 1200.62 935.873 1200.62 944.313V944.408C1200.62 952.848 1194.86 957.547 1188.87 957.547C1184.65 957.547 1182.01 955.437 1180.24 953.088V964.692H1174.39ZM1187.48 952.512C1191.46 952.512 1194.72 949.395 1194.72 944.408V944.313C1194.72 939.422 1191.36 936.209 1187.48 936.209C1183.5 936.209 1180.09 939.47 1180.09 944.313V944.408C1180.09 949.251 1183.5 952.512 1187.48 952.512ZM1209.9 957.02V936.88H1200.88V931.701H1224.71V936.88H1215.7V957.02H1209.9ZM1233.4 957.547C1228.65 957.547 1224.39 954.862 1224.39 949.731V949.635C1224.39 944.121 1228.7 941.483 1234.89 941.483C1237.77 941.483 1239.73 941.915 1241.7 942.538V941.915C1241.7 938.271 1239.49 936.401 1235.42 936.401C1232.54 936.401 1230.48 937.024 1228.18 937.983L1226.59 933.428C1229.42 932.229 1232.16 931.366 1236.18 931.366C1239.97 931.366 1242.75 932.325 1244.57 934.195C1246.44 936.065 1247.31 938.702 1247.31 942.011V957.02H1241.65V953.855C1239.92 955.917 1237.29 957.547 1233.4 957.547ZM1235.03 953.327C1238.87 953.327 1241.79 951.17 1241.79 947.909V946.183C1240.31 945.607 1238.34 945.176 1236.04 945.176C1232.25 945.176 1230.09 946.71 1230.09 949.395V949.491C1230.09 951.937 1232.2 953.327 1235.03 953.327ZM1264.51 957.02V923.454H1277.74C1285.61 923.454 1290.5 927.913 1290.5 934.674V934.77C1290.5 942.251 1284.5 946.231 1277.07 946.231H1270.41V957.02H1264.51ZM1270.41 940.908H1277.26C1281.72 940.908 1284.5 938.415 1284.5 934.914V934.818C1284.5 930.838 1281.68 928.824 1277.26 928.824H1270.41V940.908ZM1303.65 957.02H1297.08L1303.8 945.463L1290.37 923.454H1297.08L1307.06 940.189L1316.17 923.454H1322.74L1303.65 957.02ZM1333.61 957.02V928.92H1322.92V923.454H1350.2V928.92H1339.51V957.02H1333.61Z" fill="white"/>
</svg>
